*
G04 Mass Parameters ***
*
G04 Image ***
*
%ICAS*%
%MOIN*%
%IPPOS*%
%ASAXBY*%
G74*%FSLAN2X34Y34*%
*
G04 Aperture Definitions ***
*
%ADD10C,0.0590*%
%ADD11R,0.1772X0.1772*%
%ADD12C,0.2362*%
%ADD13R,0.0380X0.0320*%
%ADD14R,0.0320X0.0380*%
%ADD15R,0.0480X0.0760*%
%ADD16R,0.0299X0.0945*%
%ADD17C,0.0620*%
%ADD18R,0.0984X0.0472*%
%ADD19R,0.0354X0.0394*%
%ADD20C,0.0394*%
%ADD21R,0.1024X0.1024*%
%ADD22R,0.0315X0.0118*%
%ADD23R,0.0118X0.0315*%
%ADD24C,0.0020*%
%ADD25C,0.0098*%
%ADD26C,0.0197*%
%ADD27C,0.0300*%
%ADD28C,0.0787*%
*
G04 Plot Data ***
*
G54D24*
G01X-0022520Y-0002047D02*
Y0007795D01*
X-0020551Y0009764D02*
X0051102D01*
X0053071Y0007795D02*
Y-0002047D01*
X0051102Y-0004016D02*
X-0020551D01*
Y0009764D02*
G03X-0022520Y0007795I0000000J0001969D01*
G01X0053071D02*
G03X0051102Y0009764I0001969J0000000D01*
Y-0004016D02*
G03X0053071Y-0002047I0000000J0001969D01*
G01X-0022520D02*
G03X-0020551Y-0004016I0001969J0000000D01*
G54D25*
G01X0002657Y0003957D02*
X0002106D01*
X0001732Y0004331D01*
X0001417D01*
X0001102D01*
X0000433Y0005000D01*
X0000000D01*
X0005039Y-0001260D02*
Y-0001890D01*
X0004488D01*
X0004252Y-0002126D01*
X0002362D01*
X0002205Y-0002283D01*
X0000630Y0002598D02*
Y0003622D01*
X0039260Y0000400D02*
X0037095D01*
X0043000D02*
X0042994Y0000394D01*
X0040709D01*
X0035363Y0000236D02*
X0035408Y0000281D01*
X0036976D01*
X0037095Y0000400D01*
X0040709Y0000394D02*
X0039608D01*
X0039614Y0000400D01*
X0039260D01*
X0027449Y0006305D02*
X0025283D01*
X0021543D01*
X0019378D01*
X0015638D02*
X0013472D01*
X0015638D02*
X0015722Y0006220D01*
X0016929D01*
X0019378Y0006305D02*
X0019293Y0006220D01*
X0016929D01*
X0011741Y0006142D02*
X0011786Y0006187D01*
X0013354D01*
X0013472Y0006305D01*
X0011741Y0005354D02*
Y0005363D01*
X0012047Y0005669D01*
X0012432D01*
X0012520Y0005757D01*
X0045165Y0000400D02*
X0043000D01*
X0002000Y0000000D02*
Y0002630D01*
X0002343Y0002972D01*
X0002657D01*
X0003039Y-0001260D02*
Y-0001890D01*
X0001969D01*
X0001496Y-0002362D01*
Y-0002677D01*
X0001339Y-0002835D01*
X-0000945D01*
X-0001181Y-0002598D01*
Y-0002362D01*
X-0000796D01*
X0048906Y0000400D02*
X0045165D01*
X-0001181Y-0001811D02*
Y-0002362D01*
X-0000796D01*
X0003039Y-0001260D02*
Y-0001890D01*
X0004016D01*
X0004039Y-0001866D01*
Y-0001260D01*
X0031189Y0006305D02*
X0027449D01*
X0001024Y-0001584D02*
X0001330D01*
X0002362Y-0000551D01*
X0003449D01*
X0004000Y0000000D01*
X0033354Y0006305D02*
X0031189D01*
X0051071Y0000400D02*
X0048906D01*
X0018346Y0005757D02*
X0017026D01*
X0016929Y0005660D01*
X0012520Y0005757D02*
X0016833D01*
X0016929Y0005660D01*
X0041969Y-0000149D02*
X0040726D01*
X0040709Y-0000166D01*
X0024252Y0005757D02*
X0018346D01*
X0011181Y0006142D02*
Y0006079D01*
X0011118Y0006142D01*
X0010787D01*
X0010646Y0006000D01*
X0009000D01*
X0002205Y-0001181D02*
X0001032Y-0002353D01*
Y-0002362D01*
X-0000551Y-0001015D02*
X-0001172D01*
X-0001181Y-0001024D01*
X0013472Y0000400D02*
X0013433Y0000439D01*
X0011867D01*
X0011834Y0000472D01*
X0011741D01*
X0019378Y0000400D02*
X0016856D01*
X0016850Y0000394D01*
X0004000Y0000000D02*
X0004016Y0000016D01*
Y0000394D01*
X0003150Y0001260D01*
Y0002677D01*
X0006000Y0000000D02*
Y-0001874D01*
X0005433Y-0002441D01*
X0005118D01*
X0005039Y-0002520D01*
Y-0002795D01*
X0030157Y0005757D02*
X0024252D01*
X0015638Y0000400D02*
X0015644Y0000394D01*
X0016850D01*
X0001417Y0003771D02*
X0001095D01*
X0000866Y0004000D01*
X0000000D01*
X0037095Y0006305D02*
X0033354D01*
X0001000Y0006996D02*
X0002953Y0005043D01*
Y0004252D01*
X0036063Y0005757D02*
X0030157D01*
X0039260Y0006305D02*
X0037095D01*
X0036142Y-0000149D02*
X0040691D01*
X0040709Y-0000166D01*
X0009000Y0005000D02*
X0009354Y0005321D01*
X0011307D01*
X0011274Y0005354D01*
X0011181D01*
X0004232Y0003760D02*
X0005020D01*
X0006260Y0005000D01*
X0007000D01*
X0011741Y-0000394D02*
Y-0000385D01*
X0012047Y-0000079D01*
X0012450D01*
X0012520Y-0000149D01*
X0003740Y0004252D02*
Y0005709D01*
X0005000Y0006969D01*
Y0006996D01*
X0009000Y0005000D02*
X0007000D01*
X0004232Y0003957D02*
X0004902D01*
X0006945Y0006000D01*
X0007000D01*
X-0000551Y-0001575D02*
X-0000542Y-0001584D01*
X0000236D01*
X0035363Y-0000551D02*
Y-0000542D01*
X0035757Y-0000149D01*
X0036142D01*
X0000945Y0000000D02*
X0001000Y0000055D01*
Y0001945D01*
X0002224Y0003169D01*
X0002657D01*
X0009000Y0006000D02*
X0007000D01*
X0006000Y0006996D02*
X0003937Y0004933D01*
Y0004252D01*
X0009000Y0003000D02*
X0009071Y0003071D01*
X0030157D01*
X0033813Y-0000585D01*
X0034929D01*
X0034896Y-0000551D01*
X0034803D01*
X0003445Y0003465D02*
Y0003642D01*
X0003327Y0003760D01*
X0002657D01*
X0041969Y0005757D02*
X0036063D01*
X0001417Y0003771D02*
X0001428Y0003760D01*
X0002657D01*
X0002205Y-0002913D02*
X0002921D01*
X0003039Y-0002795D01*
X0000000Y0002000D02*
X0000661D01*
X0002224Y0003563D01*
X0002657D01*
X0005000Y0000000D02*
X0005512Y-0000512D01*
Y-0001811D01*
X0005197Y-0002126D01*
X0004618D01*
X0004539Y-0002205D01*
Y-0002795D01*
X0048906Y-0000585D02*
X0048782Y-0000709D01*
X0047874D01*
X0007000Y0003000D02*
X0006528D01*
X0006161Y0003366D01*
X0004232D01*
X0043000Y0006305D02*
X0039260D01*
X0003543Y0004252D02*
Y0006142D01*
X0004016Y0006614D01*
Y0006980D01*
X0004000Y0006996D01*
X0045165Y0006305D02*
X0043000D01*
X0048906D02*
X0045165D01*
X0013472Y0005321D02*
X0013348Y0005197D01*
X0012520D01*
X0005000Y0000000D02*
Y0000039D01*
X0003346Y0001693D01*
Y0002677D01*
X0015638Y0000400D02*
X0013472D01*
X0011181Y0000472D02*
X0011148Y0000439D01*
X0010506D01*
X0009000Y0001945D01*
Y0002000D01*
X0021543Y0000400D02*
X0019378D01*
X0000945Y0000000D02*
X0000236Y-0000709D01*
Y-0001024D01*
X0051071Y0006305D02*
X0048906D01*
X0047874Y-0000149D02*
X0041969D01*
X0003445Y0003465D02*
X0003346Y0003366D01*
X0002657D01*
X0004232Y0002972D02*
X0004587D01*
X0004961Y0002598D01*
X-0001827Y0002835D02*
X-0002353D01*
X-0002362Y0002826D01*
X0018346Y-0000149D02*
X0016868D01*
X0016850Y-0000166D01*
X0003000Y0000000D02*
Y0000394D01*
X0002953Y0000441D01*
Y0002677D01*
X0043000Y-0000585D02*
X0042876Y-0000709D01*
X0041969D01*
X-0002362Y0003386D02*
X-0001811D01*
X0004961Y0002992D02*
Y0003012D01*
X0004803Y0003169D01*
X0004232D01*
X0007000Y0001000D02*
X0006189Y0001811D01*
X0004173D01*
X0003740Y0002244D01*
Y0002677D01*
X0037095Y-0000585D02*
X0036970Y-0000709D01*
X0036142D01*
X0009000Y0001000D02*
X0010394Y-0000394D01*
X0011181D01*
X0031189Y0005321D02*
X0031065Y0005197D01*
X0030157D01*
X0002000Y0006996D02*
X0003150Y0005846D01*
Y0004252D01*
X0000472Y-0002362D02*
X-0000236D01*
X0018346Y0005197D02*
X0018976D01*
X0019100Y0005321D01*
X0019378D01*
X0009000Y0004000D02*
X0009693Y0003307D01*
X0030315D01*
X0033419Y0000203D01*
X0034929D01*
X0034896Y0000236D01*
X0034803D01*
X-0002362Y0003386D02*
X-0004626D01*
X-0005177Y0002835D01*
X0007000Y0002000D02*
X0004299D01*
X0003937Y0002362D01*
Y0002677D01*
X0025283Y0000400D02*
X0021543D01*
X0048906Y0005321D02*
X0048782Y0005197D01*
X0047874D01*
X0025283Y-0000585D02*
X0025159Y-0000709D01*
X0024252D01*
X-0000374Y0001181D02*
Y0001673D01*
X-0000047Y0002000D01*
X0000000D01*
X-0003177Y0002835D02*
X-0002371D01*
X-0002362Y0002826D01*
X0003346Y0004252D02*
Y0006260D01*
X0003000Y0006606D01*
Y0006996D01*
X0027449Y0000400D02*
X0025283D01*
X0009000Y0001000D02*
X0007000D01*
X0009000Y0003000D02*
X0007000D01*
X0012520Y-0000709D02*
X0013104D01*
X0013228Y-0000585D01*
X0013472D01*
X0047874Y0005757D02*
X0041969D01*
X0004539Y-0001260D02*
X0004039D01*
X0041969Y0005197D02*
X0042756D01*
X0042880Y0005321D01*
X0043000D01*
X0012520Y-0000149D02*
X0012537Y-0000166D01*
X0016850D01*
X0024252Y-0000149D02*
X0018346D01*
X0004232Y0003563D02*
X0006161D01*
X0006614Y0004016D01*
X0006984D01*
X0007000Y0004000D01*
X0019378Y-0000585D02*
X0019254Y-0000709D01*
X0018346D01*
X0025283Y0005321D02*
X0025159Y0005197D01*
X0024252D01*
X0037095Y0005321D02*
X0036970Y0005197D01*
X0036063D01*
X0001024Y-0001584D02*
X0000236D01*
X0002000Y0000000D02*
Y-0000047D01*
X0001024Y-0001024D01*
X0009000Y0004000D02*
X0007000D01*
X-0009843Y0006398D02*
X-0009823Y0006378D01*
X0039575Y0000360D02*
X0039299D01*
X0039260Y0000400D01*
X0006000Y0000000D02*
X0005449Y0000551D01*
X0004803D01*
X0003543Y0001811D01*
Y0002677D01*
X0009000Y0002000D02*
X0007000D01*
G54D26*
G01X0000000Y0005000D02*
X-0000591Y0004409D01*
X-0006457D01*
X-0007244Y0005197D01*
Y0006378D01*
X-0001988Y0000551D02*
X-0001181D01*
Y-0001811D01*
Y-0001024D02*
Y0000551D01*
X-0001988D01*
X-0008740Y0004016D02*
X-0000016D01*
X0000000Y0004000D01*
X-0001988Y0000551D02*
X-0001181D01*
Y0002819D01*
X0000000Y0004000D01*
X-0009823Y0006378D02*
X-0008034D01*
G54D28*
G01X-0009843Y0002913D02*
X-0008740Y0004016D01*
G54D10*
X0000000Y0002000D03*
Y0004000D03*
Y0005000D03*
X0006000Y0000000D03*
X0005000D03*
X0001000Y0006996D03*
X0002000D03*
X0003000Y0000000D03*
Y0006996D03*
X0002000Y0000000D03*
X0000945D03*
X0004000D03*
Y0006996D03*
X0005000D03*
X0006000D03*
X0009000Y0006000D03*
Y0004000D03*
Y0005000D03*
Y0003000D03*
Y0002000D03*
Y0001000D03*
X0007000D03*
Y0002000D03*
Y0003000D03*
Y0004000D03*
Y0005000D03*
Y0006000D03*
G54D11*
X-0009843Y-0000571D03*
Y0006398D03*
G54D12*
Y0002913D03*
G54D13*
X0001024Y-0001024D03*
Y-0001584D03*
X0000236Y-0001024D03*
Y-0001584D03*
X0040709Y0000394D03*
Y-0000166D03*
X0047874Y-0000709D03*
Y-0000149D03*
X0041969Y-0000709D03*
Y-0000149D03*
X0036142Y-0000709D03*
Y-0000149D03*
X0016850Y0000394D03*
Y-0000166D03*
X0024252Y-0000709D03*
Y-0000149D03*
X0018346Y-0000709D03*
Y-0000149D03*
X0012520Y-0000709D03*
Y-0000149D03*
X0016929Y0006220D03*
Y0005660D03*
X0047874Y0005197D03*
Y0005757D03*
X0041969Y0005197D03*
Y0005757D03*
X0036063Y0005197D03*
Y0005757D03*
X0030157Y0005197D03*
Y0005757D03*
X0024252Y0005197D03*
Y0005757D03*
X0018346Y0005197D03*
Y0005757D03*
X0012520Y0005197D03*
Y0005757D03*
X-0000551Y-0001575D03*
Y-0001015D03*
X0001417Y0004331D03*
Y0003771D03*
X-0002362Y0003386D03*
Y0002826D03*
G54D14*
X0034803Y-0000551D03*
X0035363D03*
X0034803Y0000236D03*
X0035363D03*
X0011181Y-0000394D03*
X0011741D03*
X0011181Y0000472D03*
X0011741D03*
X0011181Y0005354D03*
X0011741D03*
X0011181Y0006142D03*
X0011741D03*
X0000472Y-0002362D03*
X0001032D03*
X-0000236D03*
X-0000796D03*
G54D15*
X-0007244Y0006378D03*
X-0008034D03*
G54D16*
X0005039Y-0001260D03*
Y-0002795D03*
X0004539Y-0001260D03*
Y-0002795D03*
X0004039Y-0001260D03*
Y-0002795D03*
X0003539Y-0001260D03*
Y-0002795D03*
X0003039Y-0001260D03*
Y-0002795D03*
G54D17*
X-0003177Y0002835D03*
X-0005177D03*
G54D18*
X0051071Y-0000585D03*
Y0000400D03*
Y0001384D03*
X0048906Y-0000585D03*
Y0000400D03*
Y0001384D03*
X0045165Y-0000585D03*
Y0000400D03*
Y0001384D03*
X0043000Y-0000585D03*
Y0000400D03*
Y0001384D03*
X0039260Y-0000585D03*
Y0000400D03*
Y0001384D03*
X0037095Y-0000585D03*
Y0000400D03*
Y0001384D03*
X0027449Y-0000585D03*
Y0000400D03*
Y0001384D03*
X0025283Y-0000585D03*
Y0000400D03*
Y0001384D03*
X0021543Y-0000585D03*
Y0000400D03*
Y0001384D03*
X0019378Y-0000585D03*
Y0000400D03*
Y0001384D03*
X0015638Y-0000585D03*
Y0000400D03*
Y0001384D03*
X0013472Y-0000585D03*
Y0000400D03*
Y0001384D03*
X0051071Y0005321D03*
Y0006305D03*
Y0007289D03*
X0048906Y0005321D03*
Y0006305D03*
Y0007289D03*
X0045165Y0005321D03*
Y0006305D03*
Y0007289D03*
X0043000Y0005321D03*
Y0006305D03*
Y0007289D03*
X0039260Y0005321D03*
Y0006305D03*
Y0007289D03*
X0037095Y0005321D03*
Y0006305D03*
Y0007289D03*
X0033354Y0005321D03*
Y0006305D03*
Y0007289D03*
X0031189Y0005321D03*
Y0006305D03*
Y0007289D03*
X0027449Y0005321D03*
Y0006305D03*
Y0007289D03*
X0025283Y0005321D03*
Y0006305D03*
Y0007289D03*
X0021543Y0005321D03*
Y0006305D03*
Y0007289D03*
X0019378Y0005321D03*
Y0006305D03*
Y0007289D03*
X0015638Y0005321D03*
Y0006305D03*
Y0007289D03*
X0013472Y0005321D03*
Y0006305D03*
Y0007289D03*
G54D19*
X-0001988Y0000551D03*
X-0000374D03*
Y0001181D03*
X-0001988D03*
G54D20*
X-0020079Y-0001772D03*
Y0007480D03*
X0051969Y-0001772D03*
G54D21*
X0003445Y0003465D03*
G54D22*
X0002657Y0003957D03*
Y0003760D03*
Y0003563D03*
Y0003366D03*
Y0003169D03*
Y0002972D03*
X0004232D03*
Y0003169D03*
Y0003366D03*
Y0003563D03*
Y0003760D03*
Y0003957D03*
G54D23*
X0003937Y0004252D03*
X0003740D03*
X0003543D03*
X0003346D03*
X0003150D03*
X0002953D03*
Y0002677D03*
X0003150D03*
X0003346D03*
X0003543D03*
X0003740D03*
X0003937D03*
G54D27*
X0002205Y-0002283D03*
X0000630Y0002598D03*
Y0003622D03*
X0002205Y-0001181D03*
Y-0002913D03*
X0004961Y0002598D03*
X-0001827Y0002835D03*
X-0001811Y0003386D03*
X0004961Y0002992D03*
M02*
