*
G04 Mass Parameters ***
*
G04 Image ***
*
%ICAS*%
%MOIN*%
%IPPOS*%
%ASAXBY*%
G74*%FSLAN2X34Y34*%
*
G04 Aperture Definitions ***
*
%ADD10C,0.0590*%
%ADD11R,0.1772X0.1772*%
%ADD12C,0.2362*%
%ADD13R,0.0380X0.0320*%
%ADD14R,0.0320X0.0380*%
%ADD15R,0.0480X0.0760*%
%ADD16R,0.0299X0.0945*%
%ADD17C,0.0620*%
%ADD18R,0.0984X0.0472*%
%ADD19R,0.0354X0.0394*%
%ADD20C,0.0394*%
%ADD21R,0.1024X0.1024*%
%ADD22R,0.0315X0.0118*%
%ADD23R,0.0118X0.0315*%
%ADD24C,0.0020*%
%ADD25C,0.0098*%
%ADD26C,0.0197*%
%ADD27C,0.0300*%
%ADD28C,0.0787*%
%ADD29C,0.0118*%
%ADD30C,0.0300*%
%ADD31C,0.4528*%
%ADD32C,0.0670*%
%ADD33C,0.0787*%
%ADD34C,0.0350*%
%ADD35C,0.0079*%
%ADD36C,0.0100*%
%ADD37C,0.0059*%
%ADD38C,0.0060*%
*
G04 Plot Data ***
*
G54D24*
G01X-0022520Y-0002047D02*
Y0007795D01*
X-0020551Y0009764D02*
X0051102D01*
X0053071Y0007795D02*
Y-0002047D01*
X0051102Y-0004016D02*
X-0020551D01*
Y0009764D02*
G03X-0022520Y0007795I0000000J0001969D01*
G01X0053071D02*
G03X0051102Y0009764I0001969J0000000D01*
Y-0004016D02*
G03X0053071Y-0002047I0000000J0001969D01*
G01X-0022520D02*
G03X-0020551Y-0004016I0001969J0000000D01*
G54D29*
G01X-0013762Y0001334D02*
X-0014637D01*
X-0013762Y0002209D01*
Y0002428D01*
X-0013871Y0002647D01*
X-0014528D01*
X-0014637Y0002428D01*
X-0015857Y0001553D02*
X-0015748Y0001334D01*
X-0015092D01*
X-0014983Y0001553D01*
Y0001990D01*
X-0015201Y0002209D01*
X-0015857D01*
Y0002647D01*
X-0014983D01*
X-0016203Y0001334D02*
X-0016640D01*
X-0016422D02*
Y0002647D01*
X-0016640Y0002428D01*
X-0018080Y0001553D02*
X-0017861Y0001334D01*
X-0017423D01*
X-0017205Y0001553D01*
Y0001772D01*
X-0017642Y0002209D01*
X-0017205Y0002647D01*
X-0018080D01*
X-0014134Y0004239D02*
X-0014243Y0004458D01*
X-0014899D01*
X-0015009Y0004239D01*
Y0004020D01*
X-0014899Y0003801D01*
X-0014243D01*
X-0014134Y0003583D01*
Y0003364D01*
X-0014243Y0003145D01*
X-0014899D01*
X-0015009Y0003364D01*
X-0015354Y0003801D02*
X-0016229D01*
X-0015354Y0003145D02*
Y0004458D01*
X-0016229Y0003145D02*
Y0004458D01*
X-0016575D02*
Y0003145D01*
X-0016794Y0003364D01*
X-0017231Y0004239D01*
X-0017450Y0004458D01*
Y0003145D01*
X-0005057Y0002806D02*
X-0004652Y0003211D01*
Y0007389D01*
X-0005439Y0008176D02*
X-0020085D01*
X-0020872Y0007389D02*
Y-0001745D01*
X-0020085Y-0002533D02*
X-0005439D01*
X-0004652Y-0001745D02*
Y0002463D01*
X-0004415Y0003182D01*
Y0007389D01*
X-0005439Y0008412D02*
X-0020085D01*
X-0021108Y0007389D02*
Y-0001745D01*
X-0020085Y-0002769D02*
X-0005439D01*
X-0004415Y-0001745D02*
Y0002473D01*
X-0004179Y0003193D01*
Y0007389D01*
X-0005439Y0008648D02*
X-0020085D01*
X-0021345Y0007389D02*
Y-0001745D01*
X-0020085Y-0003005D02*
X-0005439D01*
X-0004179Y-0001745D02*
Y0002459D01*
X-0003943Y0003193D01*
Y0007389D01*
X-0005439Y0008885D02*
X-0020085D01*
X-0021581Y0007389D02*
Y-0001745D01*
X-0020085Y-0003241D02*
X-0005439D01*
X-0003943Y-0001745D02*
Y0002437D01*
X-0003707Y0003197D01*
Y0007389D01*
X-0005439Y0009121D02*
X-0020085D01*
X-0021817Y0007389D02*
Y-0001745D01*
X-0020085Y-0003478D02*
X-0005439D01*
X-0003707Y-0001745D02*
Y0002428D01*
X-0003321Y0002814D01*
G01X-0004652Y0007389D02*
G03X-0005439Y0008176I0000787J0000000D01*
G01X-0020085D02*
G03X-0020872Y0007389I0000000J0000787D01*
Y-0001745D02*
G03X-0020085Y-0002532I0000787J0000000D01*
G01X-0005439Y-0002533D02*
G03X-0004651Y-0001745I0000000J0000788D01*
G01X-0004415Y0007389D02*
G03X-0005439Y0008413I0001024J0000000D01*
G01X-0020085Y0008412D02*
G03X-0021108Y0007389I0000000J0001023D01*
Y-0001745D02*
G03X-0020085Y-0002768I0001023J0000000D01*
G01X-0005439Y-0002769D02*
G03X-0004415Y-0001745I0000000J0001024D01*
G01X-0004179Y0007389D02*
G03X-0005439Y0008649I0001260J0000000D01*
G01X-0020085Y0008648D02*
G03X-0021344Y0007389I0000000J0001259D01*
G01X-0021345Y-0001745D02*
G03X-0020085Y-0003005I0001260J0000000D01*
G01X-0005439D02*
G03X-0004179Y-0001745I0000000J0001260D01*
G01X-0003943Y0007389D02*
G03X-0005439Y0008885I0001496J0000000D01*
G01X-0020085D02*
G03X-0021581Y0007389I0000000J0001496D01*
Y-0001745D02*
G03X-0020085Y-0003241I0001496J0000000D01*
G01X-0005439D02*
G03X-0003943Y-0001745I0000000J0001496D01*
G01X-0003707Y0007389D02*
G03X-0005439Y0009121I0001732J0000000D01*
G01X-0020085D02*
G03X-0021817Y0007389I0000000J0001732D01*
Y-0001745D02*
G03X-0020085Y-0003477I0001732J0000000D01*
G01X-0005439Y-0003478D02*
G03X-0003706Y-0001745I0000000J0001733D01*
G01X0022776Y0092624D02*
G03X0023761Y0093609I0000000J0000985D01*
G01X0021791D02*
G03X0022776Y0092624I0000985J0000000D01*
Y0094593D02*
G03X0021792Y0093609I0000000J0000984D01*
G01X0023760D02*
G03X0022776Y0094593I0000984J0000000D01*
G54D35*
G01X0008335Y0000912D02*
X0008364Y0000855D01*
X0008534D01*
X0008563Y0000912D01*
Y0001025D01*
X0008506Y0001082D01*
X0008335D01*
Y0001196D01*
X0008563D01*
X0008150D02*
Y0000855D01*
X0008093Y0000912D01*
X0007979Y0001139D01*
X0007922Y0001196D01*
Y0000855D01*
X0007736Y0000968D02*
X0007509D01*
X0007736Y0000855D02*
Y0001025D01*
X0007651Y0001196D01*
X0007594D01*
X0007509Y0001025D01*
Y0000855D01*
X-0000610Y-0000052D02*
X-0000413D01*
X-0000381Y-0000118D01*
Y-0000184D01*
X-0000413Y-0000249D01*
X-0000610D01*
X-0000643Y-0000184D01*
Y-0000118D01*
X-0000512Y0000144D01*
X-0000833Y-0000249D02*
X-0000965D01*
X-0000899D02*
Y0000144D01*
X-0000965Y0000079D01*
X-0001220Y0000144D02*
Y-0000184D01*
X-0001253Y-0000249D01*
X-0001352Y-0000052D01*
Y0000013D02*
Y-0000052D01*
X-0001450Y-0000249D01*
X-0001483Y-0000184D01*
Y0000144D01*
X-0001673Y0000079D02*
X-0001706Y0000144D01*
X-0001903D01*
X-0001936Y0000079D01*
Y0000013D01*
X-0001903Y-0000052D01*
X-0001706D01*
X-0001673Y-0000118D01*
Y-0000184D01*
X-0001706Y-0000249D01*
X-0001903D01*
X-0001936Y-0000184D01*
X0008421Y0005855D02*
X0008364Y0005912D01*
X0008335Y0005968D01*
Y0006082D01*
X0008364Y0006139D01*
X0008421Y0006196D01*
X0008477D01*
X0008534Y0006139D01*
X0008563Y0006082D01*
Y0005968D01*
X0008534Y0005912D01*
X0008477Y0005855D01*
X0008421D01*
X0008150Y0006196D02*
Y0005855D01*
X0008093Y0005912D01*
X0007979Y0006139D01*
X0007922Y0006196D01*
Y0005855D01*
X0007736Y0005968D02*
X0007509D01*
X0007736Y0005855D02*
Y0006025D01*
X0007651Y0006196D01*
X0007594D01*
X0007509Y0006025D01*
Y0005855D01*
X0008506Y0004855D02*
X0008392D01*
X0008449D02*
Y0005196D01*
X0008392Y0005139D01*
X0008150Y0005196D02*
Y0004855D01*
X0008093Y0004912D01*
X0007979Y0005139D01*
X0007922Y0005196D01*
Y0004855D01*
X0007736Y0004968D02*
X0007509D01*
X0007736Y0004855D02*
Y0005025D01*
X0007651Y0005196D01*
X0007594D01*
X0007509Y0005025D01*
Y0004855D01*
X0003110Y0004731D02*
X0002848D01*
X0003110Y0004993D01*
Y0005059D01*
X0003077Y0005125D01*
X0002881D01*
X0002848Y0005059D01*
X0002657Y0005125D02*
Y0004797D01*
X0002625Y0004731D01*
X0002428D01*
X0002395Y0004797D01*
Y0005125D01*
X-0001230Y-0000740D02*
X-0001296Y-0000708D01*
X-0001361D01*
X-0001427Y-0000740D01*
Y-0000937D01*
X-0001361Y-0000970D01*
X-0001296D01*
X-0001230Y-0000937D01*
Y-0000740D01*
X-0001164Y-0000708D01*
X-0001099D01*
X-0001033Y-0000740D01*
Y-0000937D01*
X-0001099Y-0000970D01*
X-0001164D01*
X-0001230Y-0000937D01*
X-0001099Y-0001423D02*
X-0001033Y-0001357D01*
Y-0001226D01*
X-0001099Y-0001160D01*
X-0001164D01*
X-0001296Y-0001292D01*
X-0001427Y-0001160D01*
Y-0001423D01*
X-0001230Y-0001711D02*
X-0001033Y-0001613D01*
X-0001230Y-0001876D02*
Y-0001679D01*
X-0001296Y-0001613D01*
X-0001361D01*
X-0001427Y-0001679D01*
Y-0001876D01*
X-0001033D01*
X0008563Y0003855D02*
X0008335D01*
X0008563Y0004082D01*
Y0004139D01*
X0008534Y0004196D01*
X0008364D01*
X0008335Y0004139D01*
X0008150Y0004196D02*
Y0003855D01*
X0008093Y0003912D01*
X0007979Y0004139D01*
X0007922Y0004196D01*
Y0003855D01*
X0007736Y0003968D02*
X0007509D01*
X0007736Y0003855D02*
Y0004025D01*
X0007651Y0004196D01*
X0007594D01*
X0007509Y0004025D01*
Y0003855D01*
X-0001584Y-0000904D02*
X-0001978Y-0000708D01*
Y-0000970D01*
X-0001650Y-0001423D02*
X-0001584Y-0001357D01*
Y-0001226D01*
X-0001650Y-0001160D01*
X-0001716D01*
X-0001847Y-0001292D01*
X-0001978Y-0001160D01*
Y-0001423D01*
X-0001781Y-0001711D02*
X-0001584Y-0001613D01*
X-0001781Y-0001876D02*
Y-0001679D01*
X-0001847Y-0001613D01*
X-0001912D01*
X-0001978Y-0001679D01*
Y-0001876D01*
X-0001584D01*
X0008335Y0002912D02*
X0008392Y0002855D01*
X0008506D01*
X0008563Y0002912D01*
Y0002968D01*
X0008449Y0003082D01*
X0008563Y0003196D01*
X0008335D01*
X0008150D02*
Y0002855D01*
X0008093Y0002912D01*
X0007979Y0003139D01*
X0007922Y0003196D01*
Y0002855D01*
X0007736Y0002968D02*
X0007509D01*
X0007736Y0002855D02*
Y0003025D01*
X0007651Y0003196D01*
X0007594D01*
X0007509Y0003025D01*
Y0002855D01*
X-0002380Y-0001195D02*
Y-0000998D01*
X-0002314Y-0000966D01*
X-0002248D01*
X-0002183Y-0000998D01*
Y-0001195D01*
X-0002248Y-0001228D01*
X-0002314D01*
X-0002576Y-0001097D01*
X-0002248Y-0001418D02*
X-0002183Y-0001451D01*
Y-0001648D01*
X-0002248Y-0001681D01*
X-0002511D01*
X-0002576Y-0001648D01*
Y-0001451D01*
X-0002511Y-0001418D01*
X0008563Y0001968D02*
X0008335D01*
X0008449Y0002196D01*
X0008506D01*
Y0001855D01*
X0008150Y0002196D02*
Y0001855D01*
X0008093Y0001912D01*
X0007979Y0002139D01*
X0007922Y0002196D01*
Y0001855D01*
X0007736Y0001968D02*
X0007509D01*
X0007736Y0001855D02*
Y0002025D01*
X0007651Y0002196D01*
X0007594D01*
X0007509Y0002025D01*
Y0001855D01*
X0024209Y0007341D02*
X0024143Y0007374D01*
X0024078D01*
X0024012Y0007341D01*
Y0007145D01*
X0024078Y0007112D01*
X0024143D01*
X0024209Y0007145D01*
Y0007341D01*
X0024275Y0007374D01*
X0024340D01*
X0024406Y0007341D01*
Y0007145D01*
X0024340Y0007112D01*
X0024275D01*
X0024209Y0007145D01*
X0024406Y0006921D02*
Y0006790D01*
Y0006856D02*
X0024012D01*
X0024078Y0006790D01*
X0024209Y0006436D02*
X0024406Y0006534D01*
X0024209Y0006272D02*
Y0006469D01*
X0024143Y0006534D01*
X0024078D01*
X0024012Y0006469D01*
Y0006272D01*
X0024406D01*
X0016801Y0002016D02*
Y0001819D01*
X0016736Y0001786D01*
X0016670D01*
X0016605Y0001819D01*
Y0002016D01*
X0016670Y0002048D01*
X0016736D01*
X0016998Y0001917D01*
Y0001596D02*
Y0001333D01*
X0016736Y0001596D01*
X0016670D01*
X0016605Y0001563D01*
Y0001366D01*
X0016670Y0001333D01*
X0016801Y0001044D02*
X0016998Y0001143D01*
X0016801Y0000880D02*
Y0001077D01*
X0016736Y0001143D01*
X0016670D01*
X0016605Y0001077D01*
Y0000880D01*
X0016998D01*
X0012007Y0004623D02*
X0011744D01*
X0011876Y0004885D01*
X0011941D01*
Y0004492D01*
X0011554D02*
X0011292D01*
X0011554Y0004754D01*
Y0004820D01*
X0011521Y0004885D01*
X0011324D01*
X0011292Y0004820D01*
X0011003Y0004689D02*
X0011101Y0004492D01*
X0010839Y0004689D02*
X0011036D01*
X0011101Y0004754D01*
Y0004820D01*
X0011036Y0004885D01*
X0010839D01*
Y0004492D01*
X0018500Y0007177D02*
X0018107Y0007374D01*
Y0007112D01*
X0018500Y0006921D02*
Y0006790D01*
Y0006856D02*
X0018107D01*
X0018172Y0006790D01*
X0018304Y0006436D02*
X0018500Y0006534D01*
X0018304Y0006272D02*
Y0006469D01*
X0018238Y0006534D01*
X0018172D01*
X0018107Y0006469D01*
Y0006272D01*
X0018500D01*
X0001127Y-0003028D02*
X0001160Y-0002962D01*
Y-0002897D01*
X0001127Y-0002831D01*
X0000931D01*
X0000898Y-0002897D01*
Y-0002962D01*
X0000931Y-0003028D01*
X0001127D01*
X0001160Y-0003094D01*
Y-0003159D01*
X0001127Y-0003225D01*
X0000931D01*
X0000898Y-0003159D01*
Y-0003094D01*
X0000931Y-0003028D01*
X0000609D02*
X0000708Y-0003225D01*
X0000445Y-0003028D02*
X0000642D01*
X0000708Y-0002962D01*
Y-0002897D01*
X0000642Y-0002831D01*
X0000445D01*
Y-0003225D01*
X0012477Y0007145D02*
Y0007341D01*
X0012542Y0007374D01*
X0012608D01*
X0012674Y0007341D01*
Y0007145D01*
X0012608Y0007112D01*
X0012542D01*
X0012280Y0007243D01*
X0012674Y0006921D02*
Y0006790D01*
Y0006856D02*
X0012280D01*
X0012346Y0006790D01*
X0012477Y0006436D02*
X0012674Y0006534D01*
X0012477Y0006272D02*
Y0006469D01*
X0012411Y0006534D01*
X0012346D01*
X0012280Y0006469D01*
Y0006272D01*
X0012674D01*
X0011921Y-0001256D02*
X0011856Y-0001191D01*
X0011823Y-0001125D01*
Y-0000994D01*
X0011856Y-0000928D01*
X0011921Y-0000863D01*
X0011987D01*
X0012053Y-0000928D01*
X0012086Y-0000994D01*
Y-0001125D01*
X0012053Y-0001191D01*
X0011987Y-0001256D01*
X0011921D01*
X0011370Y-0001191D02*
X0011436Y-0001256D01*
X0011567D01*
X0011633Y-0001191D01*
Y-0001125D01*
X0011502Y-0000994D01*
X0011633Y-0000863D01*
X0011370D01*
X0011082Y-0001059D02*
X0011180Y-0001256D01*
X0010918Y-0001059D02*
X0011114D01*
X0011180Y-0000994D01*
Y-0000928D01*
X0011114Y-0000863D01*
X0010918D01*
Y-0001256D01*
X0017090Y0007613D02*
X0017156Y0007678D01*
Y0007810D01*
X0017090Y0007875D01*
X0017025D01*
X0016893Y0007744D01*
X0016762Y0007875D01*
Y0007613D01*
X0017156Y0007422D02*
Y0007160D01*
X0016893Y0007422D01*
X0016828D01*
X0016762Y0007390D01*
Y0007193D01*
X0016828Y0007160D01*
X0016959Y0006871D02*
X0017156Y0006970D01*
X0016959Y0006707D02*
Y0006904D01*
X0016893Y0006970D01*
X0016828D01*
X0016762Y0006904D01*
Y0006707D01*
X0017156D01*
X0001743Y0004791D02*
X0001481D01*
X0001743Y0005054D01*
Y0005119D01*
X0001710Y0005185D01*
X0001513D01*
X0001481Y0005119D01*
X0001290Y0004857D02*
X0001257Y0004791D01*
X0001061D01*
X0001028Y0004857D01*
Y0005119D01*
X0001061Y0005185D01*
X0001257D01*
X0001290Y0005119D01*
X0024209Y0001502D02*
X0024143Y0001534D01*
X0024078D01*
X0024012Y0001502D01*
Y0001305D01*
X0024078Y0001272D01*
X0024143D01*
X0024209Y0001305D01*
Y0001502D01*
X0024275Y0001534D01*
X0024340D01*
X0024406Y0001502D01*
Y0001305D01*
X0024340Y0001272D01*
X0024275D01*
X0024209Y0001305D01*
X0024406Y0001082D02*
Y0000819D01*
X0024143Y0001082D01*
X0024078D01*
X0024012Y0001049D01*
Y0000852D01*
X0024078Y0000819D01*
X0024209Y0000530D02*
X0024406Y0000629D01*
X0024209Y0000366D02*
Y0000563D01*
X0024143Y0000629D01*
X0024078D01*
X0024012Y0000563D01*
Y0000366D01*
X0024406D01*
X0047897Y0001534D02*
Y0001272D01*
X0047634Y0001403D01*
Y0001469D01*
X0048028D01*
X0047962Y0000819D02*
X0048028Y0000885D01*
Y0001016D01*
X0047962Y0001082D01*
X0047897D01*
X0047765Y0000950D01*
X0047634Y0001082D01*
Y0000819D01*
X0047831Y0000530D02*
X0048028Y0000629D01*
X0047831Y0000366D02*
Y0000563D01*
X0047765Y0000629D01*
X0047700D01*
X0047634Y0000563D01*
Y0000366D01*
X0048028D01*
X0035478Y-0001217D02*
X0035675D01*
X0035708Y-0001283D01*
Y-0001348D01*
X0035675Y-0001414D01*
X0035478D01*
X0035445Y-0001348D01*
Y-0001283D01*
X0035576Y-0001020D01*
X0034992Y-0001348D02*
X0035058Y-0001414D01*
X0035189D01*
X0035255Y-0001348D01*
Y-0001283D01*
X0035124Y-0001151D01*
X0035255Y-0001020D01*
X0034992D01*
X0034704Y-0001217D02*
X0034802Y-0001414D01*
X0034540Y-0001217D02*
X0034736D01*
X0034802Y-0001151D01*
Y-0001086D01*
X0034736Y-0001020D01*
X0034540D01*
Y-0001414D01*
X0018500Y0001337D02*
X0018107Y0001534D01*
Y0001272D01*
X0018500Y0001082D02*
Y0000819D01*
X0018238Y0001082D01*
X0018172D01*
X0018107Y0001049D01*
Y0000852D01*
X0018172Y0000819D01*
X0018304Y0000530D02*
X0018500Y0000629D01*
X0018304Y0000366D02*
Y0000563D01*
X0018238Y0000629D01*
X0018172D01*
X0018107Y0000563D01*
Y0000366D01*
X0018500D01*
X-0000537Y0002098D02*
X-0000570Y0002164D01*
X-0000766D01*
X-0000799Y0002098D01*
Y0002033D01*
X-0000766Y0001967D01*
X-0000570D01*
X-0000537Y0001902D01*
Y0001836D01*
X-0000570Y0001770D01*
X-0000766D01*
X-0000799Y0001836D01*
X-0001055Y0001967D02*
X-0001252D01*
X-0000990Y0001770D02*
X-0001252D01*
Y0002164D01*
X-0000990D01*
X-0001541Y0001967D02*
X-0001442Y0001770D01*
X-0001705Y0001967D02*
X-0001508D01*
X-0001442Y0002033D01*
Y0002098D01*
X-0001508Y0002164D01*
X-0001705D01*
Y0001770D01*
X-0001895D02*
Y0001967D01*
X-0001928Y0002033D01*
X-0002125D01*
Y0001770D01*
X0031850Y-0000281D02*
X0031719D01*
X0031785D02*
Y0000113D01*
X0031719Y0000047D01*
X0031398Y-0000281D02*
X0031463D01*
Y-0000215D01*
X0031398D01*
Y-0000281D01*
X0031142D02*
X0030879D01*
X0031142Y-0000018D01*
Y0000047D01*
X0031109Y0000113D01*
X0030912D01*
X0030879Y0000047D01*
X0030689Y0000113D02*
Y-0000018D01*
X0030558Y-0000281D01*
X0030427Y-0000018D01*
Y0000113D01*
X0014807Y-0002483D02*
X0014894Y-0002571D01*
X0015069D01*
X0015157Y-0002483D01*
Y-0002396D01*
X0014982Y-0002221D01*
X0015157Y-0002046D01*
X0014807D01*
X0014605Y-0002396D02*
X0014255D01*
X0014605Y-0002221D02*
X0014255D01*
X0014518Y-0002571D02*
Y-0002046D01*
X0014343Y-0002571D02*
Y-0002046D01*
X0014054Y-0002571D02*
X0013879D01*
X0013967D02*
Y-0002046D01*
X0013879Y-0002133D01*
X0032907Y0000625D02*
X0032710D01*
X0032972Y0000428D02*
X0032710D01*
Y0000822D01*
X0032972D01*
X0032520Y0000493D02*
X0032487Y0000428D01*
X0032290D01*
X0032257Y0000493D01*
Y0000756D01*
X0032290Y0000822D01*
X0032487D01*
X0032520Y0000756D01*
X0032067Y0000822D02*
Y0000428D01*
X0032001Y0000493D01*
X0031870Y0000756D01*
X0031804Y0000822D01*
Y0000428D01*
X0031549Y0000625D02*
X0031352D01*
X0031614Y0000428D02*
X0031352D01*
Y0000822D01*
X0031614D01*
X0031063Y0000625D02*
X0031161Y0000428D01*
X0030899Y0000625D02*
X0031096D01*
X0031161Y0000690D01*
Y0000756D01*
X0031096Y0000822D01*
X0030899D01*
Y0000428D01*
X0030643Y0000625D02*
X0030446D01*
X0030709Y0000428D02*
X0030446D01*
Y0000822D01*
X0030709D01*
X0030256Y0000625D02*
X0029993D01*
X0030256Y0000428D02*
Y0000822D01*
X0029993Y0000428D02*
Y0000822D01*
X0029573Y0000428D02*
Y0000822D01*
X0029541Y0000428D02*
X0029738D01*
X0029803Y0000559D01*
Y0000690D01*
X0029738Y0000822D01*
X0029541D01*
X0029350Y0000559D02*
X0029088D01*
X0029350Y0000428D02*
Y0000625D01*
X0029252Y0000822D01*
X0029186D01*
X0029088Y0000625D01*
Y0000428D01*
X0034747Y0003341D02*
X0034944Y0003735D01*
X0034682D01*
X0033825Y0003538D02*
X0033629D01*
Y0003341D02*
Y0003735D01*
X0033891D01*
X0033209Y0003341D02*
X0033176Y0003407D01*
Y0003669D01*
X0033209Y0003735D01*
X0033406D01*
X0033438Y0003669D01*
Y0003407D01*
X0033406Y0003341D01*
X0033209D01*
X0032254D02*
Y0003735D01*
X0032385D02*
X0032123D01*
X0031932D02*
Y0003407D01*
X0031900Y0003341D01*
X0031703D01*
X0031670Y0003407D01*
Y0003735D01*
X0031250Y0003341D02*
X0031217Y0003407D01*
Y0003669D01*
X0031250Y0003735D01*
X0031447D01*
X0031480Y0003669D01*
Y0003407D01*
X0031447Y0003341D01*
X0031250D01*
X0030427Y0003604D02*
X0030394Y0003538D01*
X0030262Y0003407D01*
X0030230Y0003341D01*
X0030427D02*
X0030394Y0003407D01*
X0030262Y0003538D01*
X0030230Y0003604D01*
X0030039Y0003472D02*
X0029777D01*
X0030039Y0003604D02*
X0029777D01*
X0029974Y0003341D02*
Y0003735D01*
X0029843Y0003341D02*
Y0003735D01*
X0029324Y0003407D02*
X0029390Y0003341D01*
X0029521D01*
X0029587Y0003407D01*
Y0003472D01*
X0029455Y0003604D01*
X0029587Y0003735D01*
X0029324D01*
X0032552Y0001136D02*
X0032290D01*
X0032552Y0001399D01*
Y0001465D01*
X0032520Y0001530D01*
X0032323D01*
X0032290Y0001465D01*
X0031837Y0001202D02*
X0031870Y0001136D01*
X0032067D01*
X0032100Y0001202D01*
Y0001333D01*
X0032034Y0001399D01*
X0031837D01*
Y0001530D01*
X0032100D01*
X0031647Y0001136D02*
X0031516D01*
X0031581D02*
Y0001530D01*
X0031516Y0001465D01*
X0030997Y0001202D02*
X0031063Y0001136D01*
X0031194D01*
X0031260Y0001202D01*
Y0001268D01*
X0031129Y0001399D01*
X0031260Y0001530D01*
X0030997D01*
X0030807Y0001465D02*
X0030774Y0001530D01*
X0030577D01*
X0030545Y0001465D01*
Y0001399D01*
X0030577Y0001333D01*
X0030774D01*
X0030807Y0001268D01*
Y0001202D01*
X0030774Y0001136D01*
X0030577D01*
X0030545Y0001202D01*
X0030354Y0001333D02*
X0030092D01*
X0030354Y0001136D02*
Y0001530D01*
X0030092Y0001136D02*
Y0001530D01*
X0029902D02*
Y0001136D01*
X0029836Y0001202D01*
X0029705Y0001465D01*
X0029639Y0001530D01*
Y0001136D01*
X0040791Y0001786D02*
X0040857Y0001819D01*
Y0002016D01*
X0040791Y0002048D01*
X0040660D01*
X0040594Y0001983D01*
Y0001786D01*
X0040463D01*
Y0002048D01*
X0040791Y0001333D02*
X0040857Y0001399D01*
Y0001530D01*
X0040791Y0001596D01*
X0040725D01*
X0040594Y0001464D01*
X0040463Y0001596D01*
Y0001333D01*
X0040660Y0001044D02*
X0040857Y0001143D01*
X0040660Y0000880D02*
Y0001077D01*
X0040594Y0001143D01*
X0040528D01*
X0040463Y0001077D01*
Y0000880D01*
X0040857D01*
X0050668Y-0002571D02*
X0050493D01*
X0050581D02*
Y-0002046D01*
X0050493Y-0002133D01*
X0050205Y-0002396D02*
X0049855D01*
X0050205Y-0002221D02*
X0049855D01*
X0050117Y-0002571D02*
Y-0002046D01*
X0049942Y-0002571D02*
Y-0002046D01*
X0049654Y-0002571D02*
X0049304D01*
X0049654Y-0002221D01*
Y-0002133D01*
X0049610Y-0002046D01*
X0049347D01*
X0049304Y-0002133D01*
X0044772Y-0002571D02*
X0044422D01*
X0044772Y-0002221D01*
Y-0002133D01*
X0044728Y-0002046D01*
X0044465D01*
X0044422Y-0002133D01*
X0044220Y-0002396D02*
X0043871D01*
X0044220Y-0002221D02*
X0043871D01*
X0044133Y-0002571D02*
Y-0002046D01*
X0043958Y-0002571D02*
Y-0002046D01*
X0043669Y-0002571D02*
X0043319D01*
X0043669Y-0002221D01*
Y-0002133D01*
X0043626Y-0002046D01*
X0043363D01*
X0043319Y-0002133D01*
X0038516Y-0002483D02*
X0038604Y-0002571D01*
X0038779D01*
X0038866Y-0002483D01*
Y-0002396D01*
X0038691Y-0002221D01*
X0038866Y-0002046D01*
X0038516D01*
X0038315Y-0002396D02*
X0037965D01*
X0038315Y-0002221D02*
X0037965D01*
X0038227Y-0002571D02*
Y-0002046D01*
X0038052Y-0002571D02*
Y-0002046D01*
X0037764Y-0002571D02*
X0037414D01*
X0037764Y-0002221D01*
Y-0002133D01*
X0037720Y-0002046D01*
X0037458D01*
X0037414Y-0002133D01*
X0026959Y-0002571D02*
X0026784D01*
X0026871D02*
Y-0002046D01*
X0026784Y-0002133D01*
X0026495Y-0002396D02*
X0026145D01*
X0026495Y-0002221D02*
X0026145D01*
X0026408Y-0002571D02*
Y-0002046D01*
X0026233Y-0002571D02*
Y-0002046D01*
X0025944Y-0002571D02*
X0025769D01*
X0025857D02*
Y-0002046D01*
X0025769Y-0002133D01*
X0021062Y-0002571D02*
X0020712D01*
X0021062Y-0002221D01*
Y-0002133D01*
X0021018Y-0002046D01*
X0020756D01*
X0020712Y-0002133D01*
X0020511Y-0002396D02*
X0020161D01*
X0020511Y-0002221D02*
X0020161D01*
X0020423Y-0002571D02*
Y-0002046D01*
X0020248Y-0002571D02*
Y-0002046D01*
X0019960Y-0002571D02*
X0019785D01*
X0019872D02*
Y-0002046D01*
X0019785Y-0002133D01*
X-0007520Y-0000424D02*
X-0007652D01*
X-0007586D02*
Y-0000030D01*
X-0007652Y-0000096D01*
X-0008039Y-0000424D02*
Y-0000030D01*
X-0007907D02*
X-0008170D01*
X-0008590Y-0000424D02*
Y-0000030D01*
X-0008623Y-0000424D02*
X-0008426D01*
X-0008360Y-0000359D01*
Y-0000293D01*
X-0008393Y-0000227D01*
X-0008590D02*
X-0008393D01*
X-0008360Y-0000162D01*
Y-0000096D01*
X-0008426Y-0000030D01*
X-0008623D01*
X0012556Y0001305D02*
Y0001502D01*
X0012621Y0001534D01*
X0012687D01*
X0012752Y0001502D01*
Y0001305D01*
X0012687Y0001272D01*
X0012621D01*
X0012359Y0001403D01*
X0012752Y0001082D02*
Y0000819D01*
X0012490Y0001082D01*
X0012424D01*
X0012359Y0001049D01*
Y0000852D01*
X0012424Y0000819D01*
X0012556Y0000530D02*
X0012752Y0000629D01*
X0012556Y0000366D02*
Y0000563D01*
X0012490Y0000629D01*
X0012424D01*
X0012359Y0000563D01*
Y0000366D01*
X0012752D01*
X0007448Y-0001096D02*
X0007185D01*
X0007448Y-0000833D01*
Y-0000768D01*
X0007415Y-0000702D01*
X0007218D01*
X0007185Y-0000768D01*
X0006765Y-0000965D02*
Y-0001030D01*
X0006798Y-0001096D01*
X0006929D01*
X0006962Y-0001030D01*
Y-0000702D01*
X0006995D02*
X0006864D01*
X0005647Y-0001185D02*
X0005525D01*
X0005586D02*
Y-0000818D01*
X0005525Y-0000879D01*
X-0000124Y-0003219D02*
X-0000255D01*
X-0000189D02*
Y-0002825D01*
X-0000255Y-0002891D01*
X-0000740Y-0003219D02*
Y-0002825D01*
X-0000773Y-0003219D02*
X-0000576D01*
X-0000511Y-0003087D01*
Y-0002956D01*
X-0000576Y-0002825D01*
X-0000773D01*
X-0002023Y0003846D02*
X-0002155D01*
X-0002089D02*
Y0004240D01*
X-0002155Y0004174D01*
X-0002410Y0003912D02*
X-0002443Y0003846D01*
X-0002640D01*
X-0002673Y0003912D01*
Y0004174D01*
X-0002640Y0004240D01*
X-0002443D01*
X-0002410Y0004174D01*
X0042057Y0001272D02*
X0042122Y0001337D01*
Y0001469D01*
X0042057Y0001534D01*
X0041991D01*
X0041860Y0001403D01*
X0041729Y0001534D01*
Y0001272D01*
X0042057Y0000819D02*
X0042122Y0000885D01*
Y0001016D01*
X0042057Y0001082D01*
X0041991D01*
X0041860Y0000950D01*
X0041729Y0001082D01*
Y0000819D01*
X0041926Y0000530D02*
X0042122Y0000629D01*
X0041926Y0000366D02*
Y0000563D01*
X0041860Y0000629D01*
X0041794D01*
X0041729Y0000563D01*
Y0000366D01*
X0042122D01*
X0048028Y0007440D02*
Y0007177D01*
X0047765Y0007440D01*
X0047700D01*
X0047634Y0007407D01*
Y0007210D01*
X0047700Y0007177D01*
X0048028Y0006987D02*
Y0006725D01*
X0047765Y0006987D01*
X0047700D01*
X0047634Y0006954D01*
Y0006757D01*
X0047700Y0006725D01*
X0047831Y0006436D02*
X0048028Y0006534D01*
X0047831Y0006272D02*
Y0006469D01*
X0047765Y0006534D01*
X0047700D01*
X0047634Y0006469D01*
Y0006272D01*
X0048028D01*
X0011823Y0001014D02*
X0011856Y0000948D01*
X0012053D01*
X0012086Y0001014D01*
Y0001145D01*
X0012020Y0001211D01*
X0011823D01*
Y0001342D01*
X0012086D01*
X0011633Y0000948D02*
X0011370D01*
X0011633Y0001211D01*
Y0001277D01*
X0011600Y0001342D01*
X0011403D01*
X0011370Y0001277D01*
X0011082Y0001145D02*
X0011180Y0000948D01*
X0010918Y0001145D02*
X0011114D01*
X0011180Y0001211D01*
Y0001277D01*
X0011114Y0001342D01*
X0010918D01*
Y0000948D01*
X0036296Y0001534D02*
Y0001272D01*
X0036033Y0001534D01*
X0035968D01*
X0035902Y0001502D01*
Y0001305D01*
X0035968Y0001272D01*
X0036230Y0000819D02*
X0036296Y0000885D01*
Y0001016D01*
X0036230Y0001082D01*
X0036164D01*
X0036033Y0000950D01*
X0035902Y0001082D01*
Y0000819D01*
X0036099Y0000530D02*
X0036296Y0000629D01*
X0036099Y0000366D02*
Y0000563D01*
X0036033Y0000629D01*
X0035968D01*
X0035902Y0000563D01*
Y0000366D01*
X0036296D01*
X0042122Y0007374D02*
Y0007243D01*
Y0007309D02*
X0041729D01*
X0041794Y0007243D01*
X0042122Y0006987D02*
Y0006725D01*
X0041860Y0006987D01*
X0041794D01*
X0041729Y0006954D01*
Y0006757D01*
X0041794Y0006725D01*
X0041926Y0006436D02*
X0042122Y0006534D01*
X0041926Y0006272D02*
Y0006469D01*
X0041860Y0006534D01*
X0041794D01*
X0041729Y0006469D01*
Y0006272D01*
X0042122D01*
X0011679Y0006683D02*
X0011711Y0006618D01*
X0011908D01*
X0011941Y0006683D01*
Y0006815D01*
X0011876Y0006880D01*
X0011679D01*
Y0007011D01*
X0011941D01*
X0011488Y0006618D02*
X0011357D01*
X0011423D02*
Y0007011D01*
X0011357Y0006946D01*
X0011003Y0006815D02*
X0011101Y0006618D01*
X0010839Y0006815D02*
X0011036D01*
X0011101Y0006880D01*
Y0006946D01*
X0011036Y0007011D01*
X0010839D01*
Y0006618D01*
X0035642Y0000712D02*
X0035511D01*
X0035576D02*
Y0001106D01*
X0035511Y0001040D01*
X0034992Y0000778D02*
X0035058Y0000712D01*
X0035189D01*
X0035255Y0000778D01*
Y0000843D01*
X0035124Y0000975D01*
X0035255Y0001106D01*
X0034992D01*
X0034704Y0000909D02*
X0034802Y0000712D01*
X0034540Y0000909D02*
X0034736D01*
X0034802Y0000975D01*
Y0001040D01*
X0034736Y0001106D01*
X0034540D01*
Y0000712D01*
X0036217Y0007276D02*
X0036151Y0007210D01*
X0036086Y0007177D01*
X0035954D01*
X0035889Y0007210D01*
X0035823Y0007276D01*
Y0007341D01*
X0035889Y0007407D01*
X0035954Y0007440D01*
X0036086D01*
X0036151Y0007407D01*
X0036217Y0007341D01*
Y0007276D01*
Y0006987D02*
Y0006725D01*
X0035954Y0006987D01*
X0035889D01*
X0035823Y0006954D01*
Y0006757D01*
X0035889Y0006725D01*
X0036020Y0006436D02*
X0036217Y0006534D01*
X0036020Y0006272D02*
Y0006469D01*
X0035954Y0006534D01*
X0035889D01*
X0035823Y0006469D01*
Y0006272D01*
X0036217D01*
X0030115Y0007341D02*
Y0007145D01*
X0030049Y0007112D01*
X0029983D01*
X0029918Y0007145D01*
Y0007341D01*
X0029983Y0007374D01*
X0030049D01*
X0030311Y0007243D01*
Y0006921D02*
Y0006790D01*
Y0006856D02*
X0029918D01*
X0029983Y0006790D01*
X0030115Y0006436D02*
X0030311Y0006534D01*
X0030115Y0006272D02*
Y0006469D01*
X0030049Y0006534D01*
X0029983D01*
X0029918Y0006469D01*
Y0006272D01*
X0030311D01*
X0050482Y0002488D02*
X0050515Y0002422D01*
X0050712D01*
X0050745Y0002488D01*
Y0002619D01*
X0050679Y0002684D01*
X0050482D01*
Y0002816D01*
X0050745D01*
X0050292Y0002422D02*
X0050161D01*
X0050227D02*
Y0002816D01*
X0050161Y0002750D01*
X0049905Y0002816D02*
Y0002488D01*
X0049873Y0002422D01*
X0049774Y0002619D01*
Y0002684D02*
Y0002619D01*
X0049676Y0002422D01*
X0049643Y0002488D01*
Y0002816D01*
X0049453Y0002750D02*
X0049420Y0002816D01*
X0049223D01*
X0049190Y0002750D01*
Y0002684D01*
X0049223Y0002619D01*
X0049420D01*
X0049453Y0002553D01*
Y0002488D01*
X0049420Y0002422D01*
X0049223D01*
X0049190Y0002488D01*
X0044839Y0002553D02*
X0044577D01*
X0044708Y0002816D01*
X0044774D01*
Y0002422D01*
X0044387D02*
X0044256D01*
X0044321D02*
Y0002816D01*
X0044256Y0002750D01*
X0044000Y0002816D02*
Y0002488D01*
X0043967Y0002422D01*
X0043869Y0002619D01*
Y0002684D02*
Y0002619D01*
X0043770Y0002422D01*
X0043737Y0002488D01*
Y0002816D01*
X0043547Y0002750D02*
X0043514Y0002816D01*
X0043318D01*
X0043285Y0002750D01*
Y0002684D01*
X0043318Y0002619D01*
X0043514D01*
X0043547Y0002553D01*
Y0002488D01*
X0043514Y0002422D01*
X0043318D01*
X0043285Y0002488D01*
X0038671D02*
X0038737Y0002422D01*
X0038868D01*
X0038934Y0002488D01*
Y0002553D01*
X0038803Y0002684D01*
X0038934Y0002816D01*
X0038671D01*
X0038481Y0002422D02*
X0038350D01*
X0038416D02*
Y0002816D01*
X0038350Y0002750D01*
X0038094Y0002816D02*
Y0002488D01*
X0038061Y0002422D01*
X0037963Y0002619D01*
Y0002684D02*
Y0002619D01*
X0037865Y0002422D01*
X0037832Y0002488D01*
Y0002816D01*
X0037642Y0002750D02*
X0037609Y0002816D01*
X0037412D01*
X0037379Y0002750D01*
Y0002684D01*
X0037412Y0002619D01*
X0037609D01*
X0037642Y0002553D01*
Y0002488D01*
X0037609Y0002422D01*
X0037412D01*
X0037379Y0002488D01*
X0027123Y0002422D02*
X0026860D01*
X0027123Y0002684D01*
Y0002750D01*
X0027090Y0002816D01*
X0026893D01*
X0026860Y0002750D01*
X0026670Y0002422D02*
X0026539D01*
X0026605D02*
Y0002816D01*
X0026539Y0002750D01*
X0026283Y0002816D02*
Y0002488D01*
X0026250Y0002422D01*
X0026152Y0002619D01*
Y0002684D02*
Y0002619D01*
X0026054Y0002422D01*
X0026021Y0002488D01*
Y0002816D01*
X0025831Y0002750D02*
X0025798Y0002816D01*
X0025601D01*
X0025568Y0002750D01*
Y0002684D01*
X0025601Y0002619D01*
X0025798D01*
X0025831Y0002553D01*
Y0002488D01*
X0025798Y0002422D01*
X0025601D01*
X0025568Y0002488D01*
X0021152Y0002422D02*
X0021020D01*
X0021086D02*
Y0002816D01*
X0021020Y0002750D01*
X0020765Y0002422D02*
X0020634D01*
X0020699D02*
Y0002816D01*
X0020634Y0002750D01*
X0020378Y0002816D02*
Y0002488D01*
X0020345Y0002422D01*
X0020247Y0002619D01*
Y0002684D02*
Y0002619D01*
X0020148Y0002422D01*
X0020115Y0002488D01*
Y0002816D01*
X0019925Y0002750D02*
X0019892Y0002816D01*
X0019696D01*
X0019663Y0002750D01*
Y0002684D01*
X0019696Y0002619D01*
X0019892D01*
X0019925Y0002553D01*
Y0002488D01*
X0019892Y0002422D01*
X0019696D01*
X0019663Y0002488D01*
X0015148Y0002422D02*
X0015082Y0002488D01*
X0015049Y0002553D01*
Y0002684D01*
X0015082Y0002750D01*
X0015148Y0002816D01*
X0015213D01*
X0015279Y0002750D01*
X0015312Y0002684D01*
Y0002553D01*
X0015279Y0002488D01*
X0015213Y0002422D01*
X0015148D01*
X0014859D02*
X0014728D01*
X0014794D02*
Y0002816D01*
X0014728Y0002750D01*
X0014472Y0002816D02*
Y0002488D01*
X0014439Y0002422D01*
X0014341Y0002619D01*
Y0002684D02*
Y0002619D01*
X0014243Y0002422D01*
X0014210Y0002488D01*
Y0002816D01*
X0014020Y0002750D02*
X0013987Y0002816D01*
X0013790D01*
X0013757Y0002750D01*
Y0002684D01*
X0013790Y0002619D01*
X0013987D01*
X0014020Y0002553D01*
Y0002488D01*
X0013987Y0002422D01*
X0013790D01*
X0013757Y0002488D01*
X0050483Y0008524D02*
X0050286D01*
X0050253Y0008590D01*
Y0008655D01*
X0050286Y0008721D01*
X0050483D01*
X0050515Y0008655D01*
Y0008590D01*
X0050384Y0008327D01*
X0050063Y0008721D02*
Y0008393D01*
X0050030Y0008327D01*
X0049932Y0008524D01*
Y0008590D02*
Y0008524D01*
X0049833Y0008327D01*
X0049800Y0008393D01*
Y0008721D01*
X0049610Y0008655D02*
X0049577Y0008721D01*
X0049381D01*
X0049348Y0008655D01*
Y0008590D01*
X0049381Y0008524D01*
X0049577D01*
X0049610Y0008459D01*
Y0008393D01*
X0049577Y0008327D01*
X0049381D01*
X0049348Y0008393D01*
X0044577Y0008524D02*
X0044610Y0008590D01*
Y0008655D01*
X0044577Y0008721D01*
X0044380D01*
X0044347Y0008655D01*
Y0008590D01*
X0044380Y0008524D01*
X0044577D01*
X0044610Y0008459D01*
Y0008393D01*
X0044577Y0008327D01*
X0044380D01*
X0044347Y0008393D01*
Y0008459D01*
X0044380Y0008524D01*
X0044157Y0008721D02*
Y0008393D01*
X0044124Y0008327D01*
X0044026Y0008524D01*
Y0008590D02*
Y0008524D01*
X0043928Y0008327D01*
X0043895Y0008393D01*
Y0008721D01*
X0043705Y0008655D02*
X0043672Y0008721D01*
X0043475D01*
X0043442Y0008655D01*
Y0008590D01*
X0043475Y0008524D01*
X0043672D01*
X0043705Y0008459D01*
Y0008393D01*
X0043672Y0008327D01*
X0043475D01*
X0043442Y0008393D01*
X0038508Y0008327D02*
X0038704Y0008721D01*
X0038442D01*
X0038252D02*
Y0008393D01*
X0038219Y0008327D01*
X0038121Y0008524D01*
Y0008590D02*
Y0008524D01*
X0038022Y0008327D01*
X0037989Y0008393D01*
Y0008721D01*
X0037799Y0008655D02*
X0037766Y0008721D01*
X0037570D01*
X0037537Y0008655D01*
Y0008590D01*
X0037570Y0008524D01*
X0037766D01*
X0037799Y0008459D01*
Y0008393D01*
X0037766Y0008327D01*
X0037570D01*
X0037537Y0008393D01*
X0032569Y0008524D02*
X0032766D01*
X0032799Y0008459D01*
Y0008393D01*
X0032766Y0008327D01*
X0032569D01*
X0032536Y0008393D01*
Y0008459D01*
X0032668Y0008721D01*
X0032346D02*
Y0008393D01*
X0032313Y0008327D01*
X0032215Y0008524D01*
Y0008590D02*
Y0008524D01*
X0032117Y0008327D01*
X0032084Y0008393D01*
Y0008721D01*
X0031894Y0008655D02*
X0031861Y0008721D01*
X0031664D01*
X0031631Y0008655D01*
Y0008590D01*
X0031664Y0008524D01*
X0031861D01*
X0031894Y0008459D01*
Y0008393D01*
X0031861Y0008327D01*
X0031664D01*
X0031631Y0008393D01*
X0026631D02*
X0026664Y0008327D01*
X0026861D01*
X0026893Y0008393D01*
Y0008524D01*
X0026828Y0008590D01*
X0026631D01*
Y0008721D01*
X0026893D01*
X0026441D02*
Y0008393D01*
X0026408Y0008327D01*
X0026310Y0008524D01*
Y0008590D02*
Y0008524D01*
X0026211Y0008327D01*
X0026178Y0008393D01*
Y0008721D01*
X0025988Y0008655D02*
X0025955Y0008721D01*
X0025759D01*
X0025726Y0008655D01*
Y0008590D01*
X0025759Y0008524D01*
X0025955D01*
X0025988Y0008459D01*
Y0008393D01*
X0025955Y0008327D01*
X0025759D01*
X0025726Y0008393D01*
X0020988Y0008459D02*
X0020725D01*
X0020857Y0008721D01*
X0020922D01*
Y0008327D01*
X0020535Y0008721D02*
Y0008393D01*
X0020502Y0008327D01*
X0020404Y0008524D01*
Y0008590D02*
Y0008524D01*
X0020306Y0008327D01*
X0020273Y0008393D01*
Y0008721D01*
X0020083Y0008655D02*
X0020050Y0008721D01*
X0019853D01*
X0019820Y0008655D01*
Y0008590D01*
X0019853Y0008524D01*
X0020050D01*
X0020083Y0008459D01*
Y0008393D01*
X0020050Y0008327D01*
X0019853D01*
X0019820Y0008393D01*
X0014741D02*
X0014807Y0008327D01*
X0014938D01*
X0015004Y0008393D01*
Y0008459D01*
X0014872Y0008590D01*
X0015004Y0008721D01*
X0014741D01*
X0014551D02*
Y0008393D01*
X0014518Y0008327D01*
X0014420Y0008524D01*
Y0008590D02*
Y0008524D01*
X0014321Y0008327D01*
X0014289Y0008393D01*
Y0008721D01*
X0014098Y0008655D02*
X0014066Y0008721D01*
X0013869D01*
X0013836Y0008655D01*
Y0008590D01*
X0013869Y0008524D01*
X0014066D01*
X0014098Y0008459D01*
Y0008393D01*
X0014066Y0008327D01*
X0013869D01*
X0013836Y0008393D01*
X-0000754Y0003719D02*
Y0004113D01*
X-0000786Y0003719D02*
X-0000590D01*
X-0000524Y0003850D01*
Y0003982D01*
X-0000590Y0004113D01*
X-0000786D01*
X-0000977D02*
Y0003719D01*
X-0001042Y0003785D01*
X-0001173Y0004047D01*
X-0001239Y0004113D01*
Y0003719D01*
X-0001560Y0003916D02*
X-0001429D01*
Y0003785D01*
X-0001462Y0003719D01*
X-0001659D01*
X-0001692Y0003785D01*
Y0004047D01*
X-0001659Y0004113D01*
X-0001462D01*
X-0001429Y0004047D01*
X-0000754Y0004719D02*
Y0005113D01*
X-0000786Y0004719D02*
X-0000590D01*
X-0000524Y0004850D01*
Y0004982D01*
X-0000590Y0005113D01*
X-0000786D01*
X-0001206Y0004719D02*
Y0005113D01*
X-0001239Y0004719D02*
X-0001042D01*
X-0000977Y0004850D01*
Y0004982D01*
X-0001042Y0005113D01*
X-0001239D01*
X-0001429D02*
Y0004982D01*
X-0001560Y0004719D01*
X-0001692Y0004982D01*
Y0005113D01*
X0006238Y0001569D02*
Y0001438D01*
Y0001504D02*
X0005844D01*
X0005910Y0001438D01*
X0006238Y0001182D02*
Y0001051D01*
Y0001117D02*
X0005844D01*
X0005910Y0001051D01*
X0006041Y0000533D02*
Y0000730D01*
X0005975Y0000795D01*
X0005910D01*
X0005844Y0000730D01*
Y0000533D01*
X0006238D01*
X0005238Y0001471D02*
X0005172Y0001405D01*
X0005106Y0001372D01*
X0004975D01*
X0004910Y0001405D01*
X0004844Y0001471D01*
Y0001536D01*
X0004910Y0001602D01*
X0004975Y0001635D01*
X0005106D01*
X0005172Y0001602D01*
X0005238Y0001536D01*
Y0001471D01*
Y0001182D02*
Y0001051D01*
Y0001117D02*
X0004844D01*
X0004910Y0001051D01*
X0005041Y0000533D02*
Y0000730D01*
X0004975Y0000795D01*
X0004910D01*
X0004844Y0000730D01*
Y0000533D01*
X0005238D01*
X0001041Y0006400D02*
Y0006203D01*
X0000975Y0006170D01*
X0000910D01*
X0000844Y0006203D01*
Y0006400D01*
X0000910Y0006433D01*
X0000975D01*
X0001238Y0006302D01*
X0001041Y0005718D02*
Y0005915D01*
X0000975Y0005980D01*
X0000910D01*
X0000844Y0005915D01*
Y0005718D01*
X0001238D01*
X0002041Y0006400D02*
X0001975Y0006433D01*
X0001910D01*
X0001844Y0006400D01*
Y0006203D01*
X0001910Y0006170D01*
X0001975D01*
X0002041Y0006203D01*
Y0006400D01*
X0002106Y0006433D01*
X0002172D01*
X0002238Y0006400D01*
Y0006203D01*
X0002172Y0006170D01*
X0002106D01*
X0002041Y0006203D01*
Y0005718D02*
Y0005915D01*
X0001975Y0005980D01*
X0001910D01*
X0001844Y0005915D01*
Y0005718D01*
X0002238D01*
X0003238Y0001051D02*
X0002844Y0001248D01*
Y0000985D01*
X0003041Y0000533D02*
Y0000730D01*
X0002975Y0000795D01*
X0002910D01*
X0002844Y0000730D01*
Y0000533D01*
X0003238D01*
X0002962Y0006203D02*
Y0006400D01*
X0003028Y0006433D01*
X0003093D01*
X0003159Y0006400D01*
Y0006203D01*
X0003093Y0006170D01*
X0003028D01*
X0002765Y0006302D01*
X0002962Y0005718D02*
Y0005915D01*
X0002896Y0005980D01*
X0002831D01*
X0002765Y0005915D01*
Y0005718D01*
X0003159D01*
X0002172Y0000985D02*
X0002238Y0001018D01*
Y0001215D01*
X0002172Y0001248D01*
X0002041D01*
X0001975Y0001182D01*
Y0000985D01*
X0001844D01*
Y0001248D01*
X0002041Y0000533D02*
Y0000730D01*
X0001975Y0000795D01*
X0001910D01*
X0001844Y0000730D01*
Y0000533D01*
X0002238D01*
X0001051Y0001248D02*
Y0000985D01*
X0000789Y0001117D01*
Y0001182D01*
X0001182D01*
X0000986Y0000533D02*
Y0000730D01*
X0000920Y0000795D01*
X0000854D01*
X0000789Y0000730D01*
Y0000533D01*
X0001182D01*
X0004172Y0000985D02*
X0004238Y0001051D01*
Y0001182D01*
X0004172Y0001248D01*
X0004106D01*
X0003975Y0001117D01*
X0003844Y0001248D01*
Y0000985D01*
X0004041Y0000533D02*
Y0000730D01*
X0003975Y0000795D01*
X0003910D01*
X0003844Y0000730D01*
Y0000533D01*
X0004238D01*
Y0006433D02*
Y0006170D01*
X0003975Y0006433D01*
X0003910D01*
X0003844Y0006400D01*
Y0006203D01*
X0003910Y0006170D01*
X0004041Y0005718D02*
Y0005915D01*
X0003975Y0005980D01*
X0003910D01*
X0003844Y0005915D01*
Y0005718D01*
X0004238D01*
X0005238Y0006367D02*
Y0006236D01*
Y0006302D02*
X0004844D01*
X0004910Y0006236D01*
X0005041Y0005718D02*
Y0005915D01*
X0004975Y0005980D01*
X0004910D01*
X0004844Y0005915D01*
Y0005718D01*
X0005238D01*
X0006238Y0006269D02*
X0006172Y0006203D01*
X0006106Y0006170D01*
X0005975D01*
X0005910Y0006203D01*
X0005844Y0006269D01*
Y0006334D01*
X0005910Y0006400D01*
X0005975Y0006433D01*
X0006106D01*
X0006172Y0006400D01*
X0006238Y0006334D01*
Y0006269D01*
X0006041Y0005718D02*
Y0005915D01*
X0005975Y0005980D01*
X0005910D01*
X0005844Y0005915D01*
Y0005718D01*
X0006238D01*
X0000699Y-0000729D02*
Y-0001879D01*
X0001344D01*
Y-0000729D01*
X0000699D01*
X-0000089D02*
Y-0001879D01*
X0000556D01*
Y-0000729D01*
X-0000089D01*
X-0000226Y-0001870D02*
Y-0000720D01*
X-0000871D01*
Y-0001870D01*
X-0000226D01*
X0024577Y0004902D02*
Y0006052D01*
X0023932D01*
Y0004902D01*
X0024577D01*
X0016525Y0000689D02*
Y-0000461D01*
X0017170D01*
Y0000689D01*
X0016525D01*
X0010886Y0005029D02*
X0012036D01*
Y0005674D01*
X0010886D01*
Y0005029D01*
X0018671Y0004902D02*
Y0006052D01*
X0018026D01*
Y0004902D01*
X0018671D01*
X0000177Y-0002687D02*
X0001327D01*
Y-0002042D01*
X0000177D01*
Y-0002687D01*
X0012845Y0004902D02*
Y0006052D01*
X0012200D01*
Y0004902D01*
X0012845D01*
X0010886Y-0000719D02*
X0012036D01*
Y-0000074D01*
X0010886D01*
Y-0000719D01*
X0016604Y0006515D02*
Y0005365D01*
X0017249D01*
Y0006515D01*
X0016604D01*
X0001092Y0004626D02*
Y0003476D01*
X0001737D01*
Y0004626D01*
X0001092D01*
X0024577Y-0001004D02*
Y0000146D01*
X0023932D01*
Y-0001004D01*
X0024577D01*
X0048199D02*
Y0000146D01*
X0047554D01*
Y-0001004D01*
X0048199D01*
X0034508Y-0000876D02*
X0035658D01*
Y-0000231D01*
X0034508D01*
Y-0000876D01*
X0018671Y-0001004D02*
Y0000146D01*
X0018026D01*
Y-0001004D01*
X0018671D01*
X0040384Y0000689D02*
Y-0000461D01*
X0041029D01*
Y0000689D01*
X0040384D01*
X-0007247Y0004329D02*
X-0008427Y0005509D01*
X-0011967D01*
Y0000317D01*
X-0008309D01*
X-0007207Y0001419D01*
Y0004290D01*
X0012845Y-0001004D02*
Y0000146D01*
X0012200D01*
Y-0001004D01*
X0012845D01*
X0013150Y0009004D02*
Y0004043D01*
X0051811D01*
Y0009004D01*
X0013150D01*
X0006535Y-0000669D02*
Y-0003386D01*
X0001575D01*
Y-0000669D01*
X0006535D01*
X0004213D02*
X0003819D01*
Y-0000551D01*
X0004213D01*
Y-0000669D01*
X0037008Y0003071D02*
X0051732D01*
Y-0002992D01*
X0037008D01*
Y0003071D01*
X0013150D02*
Y-0002992D01*
X0027874D01*
Y0003071D01*
X0013150D01*
X-0002687Y0003681D02*
Y0002531D01*
X-0002042D01*
Y0003681D01*
X-0002687D01*
X0042293Y-0001004D02*
Y0000146D01*
X0041649D01*
Y-0001004D01*
X0042293D01*
X0048199Y0004902D02*
Y0006052D01*
X0047554D01*
Y0004902D01*
X0048199D01*
X0010886Y0000147D02*
X0012036D01*
Y0000792D01*
X0010886D01*
Y0000147D01*
X0036467Y-0001004D02*
Y0000146D01*
X0035822D01*
Y-0001004D01*
X0036467D01*
X0042293Y0004902D02*
Y0006052D01*
X0041649D01*
Y0004902D01*
X0042293D01*
X0010886Y0005817D02*
X0012036D01*
Y0006462D01*
X0010886D01*
Y0005817D01*
X0034508Y-0000089D02*
X0035658D01*
Y0000556D01*
X0034508D01*
Y-0000089D01*
X0036388Y0004902D02*
Y0006052D01*
X0035743D01*
Y0004902D01*
X0036388D01*
X0030482D02*
Y0006052D01*
X0029837D01*
Y0004902D01*
X0030482D01*
X0004528Y0004547D02*
X0002362D01*
Y0002382D01*
X0004528D01*
Y0004547D01*
X-0002008Y0000315D02*
Y0001417D01*
X-0000354D01*
Y0000315D01*
X-0002008D01*
X0049181Y-0001451D02*
X0050756D01*
Y0002250D01*
X0049181D01*
Y-0001451D01*
X0049614Y-0000821D02*
X0050402D01*
Y0001620D01*
X0049614D01*
Y-0000821D01*
Y-0000467D02*
Y-0000191D01*
X0050402D01*
Y-0000467D01*
X0049614D01*
X0043276Y-0001451D02*
X0044850D01*
Y0002250D01*
X0043276D01*
Y-0001451D01*
X0043709Y-0000821D02*
X0044496D01*
Y0001620D01*
X0043709D01*
Y-0000821D01*
Y-0000467D02*
Y-0000191D01*
X0044496D01*
Y-0000467D01*
X0043709D01*
X0037370Y-0001451D02*
X0038945D01*
Y0002250D01*
X0037370D01*
Y-0001451D01*
X0037803Y-0000821D02*
X0038591D01*
Y0001620D01*
X0037803D01*
Y-0000821D01*
Y-0000467D02*
Y-0000191D01*
X0038591D01*
Y-0000467D01*
X0037803D01*
X0025559Y-0001451D02*
X0027134D01*
Y0002250D01*
X0025559D01*
Y-0001451D01*
X0025992Y-0000821D02*
X0026780D01*
Y0001620D01*
X0025992D01*
Y-0000821D01*
Y-0000467D02*
Y-0000191D01*
X0026780D01*
Y-0000467D01*
X0025992D01*
X0019654Y-0001451D02*
X0021228D01*
Y0002250D01*
X0019654D01*
Y-0001451D01*
X0020087Y-0000821D02*
X0020874D01*
Y0001620D01*
X0020087D01*
Y-0000821D01*
Y-0000467D02*
Y-0000191D01*
X0020874D01*
Y-0000467D01*
X0020087D01*
X0013748Y-0001451D02*
X0015323D01*
Y0002250D01*
X0013748D01*
Y-0001451D01*
X0014181Y-0000821D02*
X0014969D01*
Y0001620D01*
X0014181D01*
Y-0000821D01*
Y-0000467D02*
Y-0000191D01*
X0014969D01*
Y-0000467D01*
X0014181D01*
X0049181Y0004455D02*
X0050756D01*
Y0008155D01*
X0049181D01*
Y0004455D01*
X0049614Y0005085D02*
X0050402D01*
Y0007526D01*
X0049614D01*
Y0005085D01*
Y0005439D02*
Y0005715D01*
X0050402D01*
Y0005439D01*
X0049614D01*
X0043276Y0004455D02*
X0044850D01*
Y0008155D01*
X0043276D01*
Y0004455D01*
X0043709Y0005085D02*
X0044496D01*
Y0007526D01*
X0043709D01*
Y0005085D01*
Y0005439D02*
Y0005715D01*
X0044496D01*
Y0005439D01*
X0043709D01*
X0037370Y0004455D02*
X0038945D01*
Y0008155D01*
X0037370D01*
Y0004455D01*
X0037803Y0005085D02*
X0038591D01*
Y0007526D01*
X0037803D01*
Y0005085D01*
Y0005439D02*
Y0005715D01*
X0038591D01*
Y0005439D01*
X0037803D01*
X0031465Y0004455D02*
X0033039D01*
Y0008155D01*
X0031465D01*
Y0004455D01*
X0031898Y0005085D02*
X0032685D01*
Y0007526D01*
X0031898D01*
Y0005085D01*
Y0005439D02*
Y0005715D01*
X0032685D01*
Y0005439D01*
X0031898D01*
X0025559Y0004455D02*
X0027134D01*
Y0008155D01*
X0025559D01*
Y0004455D01*
X0025992Y0005085D02*
X0026780D01*
Y0007526D01*
X0025992D01*
Y0005085D01*
Y0005439D02*
Y0005715D01*
X0026780D01*
Y0005439D01*
X0025992D01*
X0019654Y0004455D02*
X0021228D01*
Y0008155D01*
X0019654D01*
Y0004455D01*
X0020087Y0005085D02*
X0020874D01*
Y0007526D01*
X0020087D01*
Y0005085D01*
Y0005439D02*
Y0005715D01*
X0020874D01*
Y0005439D01*
X0020087D01*
X0013748Y0004455D02*
X0015323D01*
Y0008155D01*
X0013748D01*
Y0004455D01*
X0014181Y0005085D02*
X0014969D01*
Y0007526D01*
X0014181D01*
Y0005085D01*
Y0005439D02*
Y0005715D01*
X0014969D01*
Y0005439D01*
X0014181D01*
G01X0004232Y0004252D02*
G03X0004330Y0004350I0000000J0000098D01*
G01X0004134D02*
G03X0004232Y0004252I0000098J0000000D01*
Y0004449D02*
G03X0004133Y0004350I0000000J0000099D01*
G01X0004331D02*
G03X0004232Y0004449I0000099J0000000D01*
G01X-0001181Y0000566D02*
G03X-0000881Y0000866I0000000J0000300D01*
G01X-0001481D02*
G03X-0001181Y0000566I0000300J0000000D01*
Y0001166D02*
G03X-0001481Y0000866I0000000J0000300D01*
G01X-0000881D02*
G03X-0001181Y0001166I0000300J0000000D01*
G54D36*
G01X0022776Y0092625D02*
Y0094593D01*
X0023760Y0093609D02*
X0021791D01*
G54D37*
G01X0000078Y-0002008D02*
Y-0002716D01*
X-0001102D01*
Y-0002480D01*
X-0001220Y-0002362D01*
X-0001102Y-0002244D01*
Y-0002008D01*
X0000078D01*
G54D38*
G01X-0007644Y0007051D02*
X-0007867D01*
X-0007644Y0007273D01*
Y0007328D01*
X-0007672Y0007384D01*
X-0007839D01*
X-0007867Y0007328D01*
X-0008209Y0007051D02*
Y0007384D01*
X-0008237Y0007051D02*
X-0008070D01*
X-0008014Y0007162D01*
Y0007273D01*
X-0008070Y0007384D01*
X-0008237D01*
X-0008424Y0006893D02*
Y0005863D01*
X-0006844D01*
Y0006293D01*
X-0006759Y0006378D01*
X-0006844Y0006463D01*
Y0006893D01*
X-0008424D01*
M02*
