*
G04 Mass Parameters ***
*
G04 Image ***
*
%ICAS*%
%MOIN*%
%IPPOS*%
%ASAXBY*%
G74*%FSLAN2X34Y34*%
*
G04 Aperture Definitions ***
*
%ADD10C,0.0590*%
%ADD11R,0.1772X0.1772*%
%ADD12C,0.2362*%
%ADD13R,0.0380X0.0320*%
%ADD14R,0.0320X0.0380*%
%ADD15R,0.0480X0.0760*%
%ADD16R,0.0299X0.0945*%
%ADD17C,0.0620*%
%ADD18R,0.0984X0.0472*%
%ADD19R,0.0354X0.0394*%
%ADD20C,0.0394*%
%ADD21R,0.1024X0.1024*%
%ADD22R,0.0315X0.0118*%
%ADD23R,0.0118X0.0315*%
%ADD24C,0.0020*%
%ADD25C,0.0098*%
%ADD26C,0.0197*%
%ADD27C,0.0300*%
%ADD28C,0.0787*%
%ADD29C,0.0118*%
%ADD30C,0.0300*%
%ADD31C,0.4528*%
%ADD32C,0.0670*%
%ADD33C,0.0787*%
%ADD34C,0.0350*%
*
G04 Plot Data ***
*
G54D11*
X-0009843Y-0000571D03*
Y0006398D03*
G54D13*
X0001024Y-0001024D03*
Y-0001584D03*
X0000236Y-0001024D03*
Y-0001584D03*
X0040709Y0000394D03*
Y-0000166D03*
X0047874Y-0000709D03*
Y-0000149D03*
X0041969Y-0000709D03*
Y-0000149D03*
X0036142Y-0000709D03*
Y-0000149D03*
X0016850Y0000394D03*
Y-0000166D03*
X0024252Y-0000709D03*
Y-0000149D03*
X0018346Y-0000709D03*
Y-0000149D03*
X0012520Y-0000709D03*
Y-0000149D03*
X0016929Y0006220D03*
Y0005660D03*
X0047874Y0005197D03*
Y0005757D03*
X0041969Y0005197D03*
Y0005757D03*
X0036063Y0005197D03*
Y0005757D03*
X0030157Y0005197D03*
Y0005757D03*
X0024252Y0005197D03*
Y0005757D03*
X0018346Y0005197D03*
Y0005757D03*
X0012520Y0005197D03*
Y0005757D03*
X-0000551Y-0001575D03*
Y-0001015D03*
X0001417Y0004331D03*
Y0003771D03*
X-0002362Y0003386D03*
Y0002826D03*
G54D14*
X0034803Y-0000551D03*
X0035363D03*
X0034803Y0000236D03*
X0035363D03*
X0011181Y-0000394D03*
X0011741D03*
X0011181Y0000472D03*
X0011741D03*
X0011181Y0005354D03*
X0011741D03*
X0011181Y0006142D03*
X0011741D03*
X0000472Y-0002362D03*
X0001032D03*
X-0000236D03*
X-0000796D03*
G54D15*
X-0007244Y0006378D03*
X-0008034D03*
G54D16*
X0005039Y-0001260D03*
Y-0002795D03*
X0004539Y-0001260D03*
Y-0002795D03*
X0004039Y-0001260D03*
Y-0002795D03*
X0003539Y-0001260D03*
Y-0002795D03*
X0003039Y-0001260D03*
Y-0002795D03*
G54D18*
X0051071Y-0000585D03*
Y0000400D03*
Y0001384D03*
X0048906Y-0000585D03*
Y0000400D03*
Y0001384D03*
X0045165Y-0000585D03*
Y0000400D03*
Y0001384D03*
X0043000Y-0000585D03*
Y0000400D03*
Y0001384D03*
X0039260Y-0000585D03*
Y0000400D03*
Y0001384D03*
X0037095Y-0000585D03*
Y0000400D03*
Y0001384D03*
X0027449Y-0000585D03*
Y0000400D03*
Y0001384D03*
X0025283Y-0000585D03*
Y0000400D03*
Y0001384D03*
X0021543Y-0000585D03*
Y0000400D03*
Y0001384D03*
X0019378Y-0000585D03*
Y0000400D03*
Y0001384D03*
X0015638Y-0000585D03*
Y0000400D03*
Y0001384D03*
X0013472Y-0000585D03*
Y0000400D03*
Y0001384D03*
X0051071Y0005321D03*
Y0006305D03*
Y0007289D03*
X0048906Y0005321D03*
Y0006305D03*
Y0007289D03*
X0045165Y0005321D03*
Y0006305D03*
Y0007289D03*
X0043000Y0005321D03*
Y0006305D03*
Y0007289D03*
X0039260Y0005321D03*
Y0006305D03*
Y0007289D03*
X0037095Y0005321D03*
Y0006305D03*
Y0007289D03*
X0033354Y0005321D03*
Y0006305D03*
Y0007289D03*
X0031189Y0005321D03*
Y0006305D03*
Y0007289D03*
X0027449Y0005321D03*
Y0006305D03*
Y0007289D03*
X0025283Y0005321D03*
Y0006305D03*
Y0007289D03*
X0021543Y0005321D03*
Y0006305D03*
Y0007289D03*
X0019378Y0005321D03*
Y0006305D03*
Y0007289D03*
X0015638Y0005321D03*
Y0006305D03*
Y0007289D03*
X0013472Y0005321D03*
Y0006305D03*
Y0007289D03*
G54D19*
X-0001988Y0000551D03*
X-0000374D03*
Y0001181D03*
X-0001988D03*
G54D21*
X0003445Y0003465D03*
G54D22*
X0002657Y0003957D03*
Y0003760D03*
Y0003563D03*
Y0003366D03*
Y0003169D03*
Y0002972D03*
X0004232D03*
Y0003169D03*
Y0003366D03*
Y0003563D03*
Y0003760D03*
Y0003957D03*
G54D23*
X0003937Y0004252D03*
X0003740D03*
X0003543D03*
X0003346D03*
X0003150D03*
X0002953D03*
Y0002677D03*
X0003150D03*
X0003346D03*
X0003543D03*
X0003740D03*
X0003937D03*
M02*
