%
T1C0.0150F200S100
X-001827Y002835
X-001811Y003386
X000630Y002598
X000630Y003622
X002205Y-002913
X002205Y-002283
X002205Y-001181
X004961Y002598
X004961Y002992
T3C0.0380F200S100
X-005177Y002835
X-003177Y002835
T2C0.0354F200S100
X000000Y002000
X000000Y004000
X000000Y005000
X000945Y000000
X001000Y006996
X002000Y000000
X002000Y006996
X003000Y000000
X004000Y000000
X004000Y006996
X003000Y006996
X005000Y000000
X006000Y000000
X006000Y006996
X005000Y006996
X007000Y001000
X007000Y002000
X007000Y003000
X007000Y004000
X007000Y005000
X007000Y006000
X009000Y001000
X009000Y002000
X009000Y003000
X009000Y004000
X009000Y005000
X009000Y006000
M30
