*
G04 Mass Parameters ***
*
G04 Image ***
*
%ICAS*%
%MOIN*%
%IPPOS*%
%ASAXBY*%
G74*%FSLAN2X34Y34*%
*
G04 Aperture Definitions ***
*
%ADD10C,0.0590*%
%ADD11R,0.1772X0.1772*%
%ADD12C,0.2362*%
%ADD13R,0.0380X0.0320*%
%ADD14R,0.0320X0.0380*%
%ADD15R,0.0480X0.0760*%
%ADD16R,0.0299X0.0945*%
%ADD17C,0.0620*%
%ADD18R,0.0354X0.0394*%
%ADD19C,0.0394*%
%ADD20R,0.1024X0.1024*%
%ADD21R,0.0315X0.0118*%
%ADD22R,0.0118X0.0315*%
%ADD23C,0.0004*%
%ADD24C,0.0098*%
%ADD25C,0.0197*%
%ADD26C,0.0300*%
%ADD27C,0.0787*%
%ADD28C,0.0118*%
%ADD29C,0.0300*%
%ADD30C,0.4528*%
%ADD31C,0.0670*%
%ADD32C,0.0787*%
%ADD33C,0.0350*%
*
G04 Plot Data ***
*
G54D23*
G01X-0022441Y-0002047D02*
Y0007795D01*
X-0020472Y0009764D02*
X0007874D01*
X0009843Y0007795D02*
Y-0002047D01*
X0007874Y-0004016D02*
X-0020472D01*
Y0009764D02*
G03X-0022441Y0007795I0000000J0001969D01*
G01X0009843D02*
G03X0007874Y0009764I0001969J0000000D01*
Y-0004016D02*
G03X0009843Y-0002047I0000000J0001969D01*
G01X-0022441D02*
G03X-0020472Y-0004016I0001969J0000000D01*
G54D10*
X0000000Y0002000D03*
Y0004000D03*
Y0005000D03*
X0006000Y0000000D03*
X0005000D03*
X0001000Y0006996D03*
X0002000D03*
X0003000Y0000000D03*
Y0006996D03*
X0002000Y0000000D03*
X0000945D03*
X0004000D03*
Y0006996D03*
X0005000D03*
X0006000D03*
X0007000Y0001000D03*
Y0002000D03*
Y0003000D03*
Y0004000D03*
Y0005000D03*
Y0006000D03*
G54D31*
X-0003177Y0002835D03*
X-0005177D03*
G54D33*
X0002205Y-0002283D03*
X0000630Y0002598D03*
Y0003622D03*
X0002205Y-0002913D03*
X-0001811Y0003386D03*
X0004961Y0002992D03*
Y0002598D03*
X-0001827Y0002835D03*
X0002205Y-0001181D03*
M02*
