*
G04 Mass Parameters ***
*
G04 Image ***
*
%ICAS*%
%MOIN*%
%IPPOS*%
%ASAXBY*%
G74*%FSLAN2X34Y34*%
*
G04 Aperture Definitions ***
*
%ADD10C,0.0590*%
%ADD11R,0.1772X0.1772*%
%ADD12C,0.2362*%
%ADD13R,0.0380X0.0320*%
%ADD14R,0.0320X0.0380*%
%ADD15R,0.0480X0.0760*%
%ADD16R,0.0299X0.0945*%
%ADD17C,0.0620*%
%ADD18R,0.0354X0.0394*%
%ADD19C,0.0394*%
%ADD20R,0.1024X0.1024*%
%ADD21R,0.0315X0.0118*%
%ADD22R,0.0118X0.0315*%
%ADD23C,0.0004*%
%ADD24C,0.0098*%
%ADD25C,0.0197*%
%ADD26C,0.0300*%
%ADD27C,0.0787*%
*
G04 Plot Data ***
*
G54D23*
G01X-0022441Y-0002047D02*
Y0007795D01*
X-0020472Y0009764D02*
X0007874D01*
X0009843Y0007795D02*
Y-0002047D01*
X0007874Y-0004016D02*
X-0020472D01*
Y0009764D02*
G03X-0022441Y0007795I0000000J0001969D01*
G01X0009843D02*
G03X0007874Y0009764I0001969J0000000D01*
Y-0004016D02*
G03X0009843Y-0002047I0000000J0001969D01*
G01X-0022441D02*
G03X-0020472Y-0004016I0001969J0000000D01*
G54D24*
G01X0002657Y0003957D02*
X0002106D01*
X0001732Y0004331D01*
X0001417D01*
X0001102D01*
X0000433Y0005000D01*
X0000000D01*
X0005039Y-0001260D02*
Y-0001890D01*
X0004488D01*
X0004252Y-0002126D01*
X0002362D01*
X0002205Y-0002283D01*
X0000630Y0002598D02*
Y0003622D01*
X0001417Y0003771D02*
X0001095D01*
X0000866Y0004000D01*
X0000000D01*
X-0000551Y-0001015D02*
X-0001172D01*
X-0001181Y-0001024D01*
X0003039Y-0001260D02*
Y-0001890D01*
X0004016D01*
X0004039Y-0001866D01*
Y-0001260D01*
X-0001181Y-0001811D02*
Y-0002362D01*
X-0000796D01*
X0003039Y-0001260D02*
Y-0001890D01*
X0001969D01*
X0001496Y-0002362D01*
Y-0002677D01*
X0001339Y-0002835D01*
X-0000945D01*
X-0001181Y-0002598D01*
Y-0002362D01*
X-0000796D01*
X0002000Y0000000D02*
Y0002630D01*
X0002343Y0002972D01*
X0002657D01*
X0001024Y-0001584D02*
X0001330D01*
X0002362Y-0000551D01*
X0003449D01*
X0004000Y0000000D01*
X0003445Y0003465D02*
Y0003642D01*
X0003327Y0003760D01*
X0002657D01*
X0004232Y0003957D02*
X0004902D01*
X0006945Y0006000D01*
X0007000D01*
X0002205Y-0002913D02*
X0002921D01*
X0003039Y-0002795D01*
X0004232Y0003760D02*
X0005020D01*
X0006260Y0005000D01*
X0007000D01*
X0005000Y0000000D02*
X0005512Y-0000512D01*
Y-0001811D01*
X0005197Y-0002126D01*
X0004618D01*
X0004539Y-0002205D01*
Y-0002795D01*
X0000945Y0000000D02*
X0001000Y0000055D01*
Y0001945D01*
X0002224Y0003169D01*
X0002657D01*
X0004000Y0000000D02*
X0004016Y0000016D01*
Y0000394D01*
X0003150Y0001260D01*
Y0002677D01*
X0006000Y0000000D02*
Y-0001874D01*
X0005433Y-0002441D01*
X0005118D01*
X0005039Y-0002520D01*
Y-0002795D01*
X-0002362Y0003386D02*
X-0001811D01*
X0004961Y0002992D02*
Y0003012D01*
X0004803Y0003169D01*
X0004232D01*
X0003445Y0003465D02*
X0003346Y0003366D01*
X0002657D01*
X-0000551Y-0001575D02*
X-0000542Y-0001584D01*
X0000236D01*
X0002000Y0006996D02*
X0003150Y0005846D01*
Y0004252D01*
X0004539Y-0001260D02*
X0004039D01*
X0006000Y0006996D02*
X0003937Y0004933D01*
Y0004252D01*
X0001417Y0003771D02*
X0001428Y0003760D01*
X0002657D01*
X-0002362Y0003386D02*
X-0004626D01*
X-0005177Y0002835D01*
X0003000Y0000000D02*
Y0000394D01*
X0002953Y0000441D01*
Y0002677D01*
X0004232Y0003563D02*
X0006161D01*
X0006614Y0004016D01*
X0006984D01*
X0007000Y0004000D01*
X0004232Y0002972D02*
X0004587D01*
X0004961Y0002598D01*
X-0001827Y0002835D02*
X-0002353D01*
X-0002362Y0002826D01*
X0003346Y0004252D02*
Y0006260D01*
X0003000Y0006606D01*
Y0006996D01*
X0002205Y-0001181D02*
X0001032Y-0002353D01*
Y-0002362D01*
X0000000Y0002000D02*
X0000661D01*
X0002224Y0003563D01*
X0002657D01*
X0000472Y-0002362D02*
X-0000236D01*
X0001000Y0006996D02*
X0002953Y0005043D01*
Y0004252D01*
X-0009843Y0006398D02*
X-0009823Y0006378D01*
X0003740Y0004252D02*
Y0005709D01*
X0005000Y0006969D01*
Y0006996D01*
X0006000Y0000000D02*
X0005449Y0000551D01*
X0004803D01*
X0003543Y0001811D01*
Y0002677D01*
X0007000Y0001000D02*
X0006189Y0001811D01*
X0004173D01*
X0003740Y0002244D01*
Y0002677D01*
X0005000Y0000000D02*
Y0000039D01*
X0003346Y0001693D01*
Y0002677D01*
X0007000Y0002000D02*
X0004299D01*
X0003937Y0002362D01*
Y0002677D01*
X0003543Y0004252D02*
Y0006142D01*
X0004016Y0006614D01*
Y0006980D01*
X0004000Y0006996D01*
X0002000Y0000000D02*
Y-0000047D01*
X0001024Y-0001024D01*
X-0000374Y0001181D02*
Y0001673D01*
X-0000047Y0002000D01*
X0000000D01*
X-0003177Y0002835D02*
X-0002371D01*
X-0002362Y0002826D01*
X0001024Y-0001584D02*
X0000236D01*
X0007000Y0003000D02*
X0006528D01*
X0006161Y0003366D01*
X0004232D01*
X0000945Y0000000D02*
X0000236Y-0000709D01*
Y-0001024D01*
G54D25*
G01X0000000Y0005000D02*
X-0000591Y0004409D01*
X-0006457D01*
X-0007244Y0005197D01*
Y0006378D01*
X-0001988Y0000551D02*
X-0001181D01*
Y0002819D01*
X0000000Y0004000D01*
X-0008740Y0004016D02*
X-0000016D01*
X0000000Y0004000D01*
X-0001181Y-0001024D02*
Y0000551D01*
X-0001988D01*
X-0001181D01*
Y-0001811D01*
X-0009823Y0006378D02*
X-0008034D01*
G54D27*
G01X-0009843Y0002913D02*
X-0008740Y0004016D01*
G54D10*
X0000000Y0002000D03*
Y0004000D03*
Y0005000D03*
X0006000Y0000000D03*
X0005000D03*
X0001000Y0006996D03*
X0002000D03*
X0003000Y0000000D03*
Y0006996D03*
X0002000Y0000000D03*
X0000945D03*
X0004000D03*
Y0006996D03*
X0005000D03*
X0006000D03*
X0007000Y0001000D03*
Y0002000D03*
Y0003000D03*
Y0004000D03*
Y0005000D03*
Y0006000D03*
G54D11*
X-0009843Y-0000571D03*
Y0006398D03*
G54D12*
Y0002913D03*
G54D13*
X0001024Y-0001024D03*
Y-0001584D03*
X0000236Y-0001024D03*
Y-0001584D03*
X-0000551Y-0001575D03*
Y-0001015D03*
X0001417Y0004331D03*
Y0003771D03*
X-0002362Y0003386D03*
Y0002826D03*
G54D14*
X0000472Y-0002362D03*
X0001032D03*
X-0000236D03*
X-0000796D03*
G54D15*
X-0007244Y0006378D03*
X-0008034D03*
G54D16*
X0005039Y-0001260D03*
Y-0002795D03*
X0004539Y-0001260D03*
Y-0002795D03*
X0004039Y-0001260D03*
Y-0002795D03*
X0003539Y-0001260D03*
Y-0002795D03*
X0003039Y-0001260D03*
Y-0002795D03*
G54D17*
X-0003177Y0002835D03*
X-0005177D03*
G54D18*
X-0001988Y0000551D03*
X-0000374D03*
Y0001181D03*
X-0001988D03*
G54D19*
X-0020079Y-0001772D03*
Y0007480D03*
X0008661Y-0001772D03*
G54D20*
X0003445Y0003465D03*
G54D21*
X0002657Y0003957D03*
Y0003760D03*
Y0003563D03*
Y0003366D03*
Y0003169D03*
Y0002972D03*
X0004232D03*
Y0003169D03*
Y0003366D03*
Y0003563D03*
Y0003760D03*
Y0003957D03*
G54D22*
X0003937Y0004252D03*
X0003740D03*
X0003543D03*
X0003346D03*
X0003150D03*
X0002953D03*
Y0002677D03*
X0003150D03*
X0003346D03*
X0003543D03*
X0003740D03*
X0003937D03*
G54D26*
X0002205Y-0002283D03*
X0000630Y0002598D03*
Y0003622D03*
X0002205Y-0002913D03*
X-0001811Y0003386D03*
X0004961Y0002992D03*
Y0002598D03*
X-0001827Y0002835D03*
X0002205Y-0001181D03*
M02*
